<?xml version="1.0" encoding="utf-8"?>
<!-- Generator: Adobe Illustrator 21.1.0, SVG Export Plug-In . SVG Version: 6.00 Build 0)  -->
<svg version="1.1" id="Layer_1" xmlns="http://www.w3.org/2000/svg" xmlns:xlink="http://www.w3.org/1999/xlink" x="0px" y="0px"
	 viewBox="0 0 585 507.8" style="enable-background:new 0 0 585 507.8;" xml:space="preserve">
<style type="text/css">
	.st0{fill:#24568F;}
	.st1{fill:#A5C9EB;}
	.st2{fill:#F4E3EF;}
	.st3{fill:#F9EF61;}
	.st4{fill:#E36625;}
	.st5{fill:#E72F25;}
	.st6{fill:#FFFFFF;stroke:#FFFFFF;stroke-miterlimit:10;}
	.st7{fill:#4E4E4E;}
	.st8{fill:none;}
	.st9{fill:#676767;}
	.st10{fill:#010101;}
	.st11{font-family:'Calibri';}
	.st12{font-size:21.843px;}
	.st13{letter-spacing:-1;}
	.st14{letter-spacing:6;}
	.st15{letter-spacing:-7;}
	.st16{fill:#A7A9AC;}
	.st17{fill:#F1F2F2;}
	.st18{fill:#BCBEC0;}
	.st19{fill:#D1D3D4;}
	.st20{fill:#E6E7E8;}
	.st21{fill:#414042;}
	.st22{fill:#58595B;}
	.st23{font-size:15.149px;}
	.st24{letter-spacing:4;}
	.st25{letter-spacing:-5;}
</style>
<polygon class="st0" points="153.6,198.3 27.4,99.3 91.7,0 209,140.9 "/>
<polygon class="st1" points="46.2,30.8 21.2,183.6 189.8,175.7 199.2,118.6 "/>
<polygon class="st2" points="204.4,202.7 31.3,203.9 17.3,63.6 195.2,116.8 "/>
<polygon class="st3" points="221.3,187 42.6,231.3 1.3,110.1 196,112.7 "/>
<polygon class="st4" points="3.5,155.8 50.7,247.8 204.8,142.5 187.1,108.1 "/>
<polygon class="st5" points="230.9,163.6 84.5,283.3 24.3,220.6 190.2,126.1 "/>
<path class="st6" d="M133.4,96.6l-1,7.6l-8.4-9.4c0,0-10.4-3.2-15.6-7.6s-0.9,6.7-0.9,6.7s5.4,13,9.7,16.4l7,4.6
	c-4.3,0.3-12.7,41.6-26.8,34.6c-14.1-6.9-28.8-24-28.8-24c-1.2,3.9,2.1,23.1,2.1,23.1s-5.8-1.2-17.3-6.9c-11.5-5.7-28-48.5-28-48.5
	s2.4,29,5,47.2c2.5,18.1,18.2,36.7,18.2,36.7l0.7,18.3l2.9,12.2l8.9,11.8c0,0,10.1-0.6,18.9,2c8.9,2.6,13.3,1.8,13.3,1.8
	s14.5-3,25.7-4.7s-5.2,1.1,10.4,3.7c15.6,2.6,29.5-15.9,29.5-15.9l13.9,4.9c0,0,14.8-7.1,19.4-17.9c4.6-10.8,14.1-40,10-53.3
	c-4.1-13.3-5.9-24.5-15.3-32.2s-10.9-10.1-17.5-12c-6.6-1.8-13.4-1.8-13.4-1.8s-18.3-17.1-19.8-17.3s-9.1-8.1-10.4-10.1
	c-1.3-2-1.1-6.5-1.1-6.5s-4.6,7.1-1.8,13s3.6,22.4,10.3,25.6"/>
<rect x="173" y="94.8" class="st6" width="266.2" height="129.5"/>
<g>
	<g>
		<g>
			<path class="st7" d="M305.4,96.1c-2.5,0-4.6,0-7.8,0c0,8.1,0,16.2,0,24.3c-0.6,0.1-1.1,0.2-1.7,0.4c-3.2-6.2-6.5-12.4-9.7-18.5
				c-3.7-7.1-3.7-7.1-12.6-5.9c0,13.2,0,26.6,0,40.2c2.5,0,4.8,0,7.7,0c0-8,0-15.9,0-23.7c0.5-0.2,0.9-0.4,1.4-0.5
				c1.6,2.8,3.3,5.5,4.8,8.3c1.8,3.2,3.8,6.3,5,9.7c2.3,6.6,6.5,8,13,6C305.4,123.1,305.4,109.7,305.4,96.1z"/>
			<path class="st7" d="M313.4,116.1c-0.1,12.1,9.3,21.2,21.8,21.3c12.7,0,22-8.6,22.3-20.8c0.2-11.8-9.4-21.3-21.8-21.5
				C323.4,94.8,313.5,104.2,313.4,116.1z M335.7,129.7c-7.2,0-12.9-5.8-13-13.4c-0.1-7.4,5.8-13.5,12.8-13.4
				c6.7,0.1,12.6,6.1,12.8,13C348.6,123,342.5,129.7,335.7,129.7z"/>
			<path class="st7" d="M243.4,96.1c-2.8,0-5.4,0-8.6,0c0,5,0,9.9,0,15.5c-4.9,0-9.2,0-14.2,0c-0.1-2.9-0.3-5.9-0.4-8.9
				c-0.1-7.5-0.2-7.6-8.6-6.4c0,13.2,0,26.5,0,39.8c8.4,1.5,8.5,1.4,8.6-6.6c0-3,0-6,0-9.3c5,0,9.2,0,14.1,0c0,5.5,0,10.7,0,16.2
				c3.4,0,6.1,0,9.1,0C243.4,123.1,243.4,109.8,243.4,96.1z"/>
			<g>
				<path class="st8" d="M187.5,102.9c-6-0.2-3.6,4.5-4,7.4c-0.2,1.5,0.3,3.1,0.5,4.8c1.3,0.2,2.3,0.3,3.3,0.4
					c4.3,0.2,7.1-1.5,7.2-6.1C194.6,104.6,191.7,103,187.5,102.9z"/>
				<path class="st7" d="M200.6,117.5c1.2-4.3,2.7-8.9,2.1-13.1c-0.8-5.3-5.5-8-10.7-8.4c-5.4-0.4-10.8-0.1-17-0.1
					c0,13.9,0,27,0,40.6c2.5,0,4.9,0,8,0c0.3-4.4,0.7-9.1,1-13.8c0.6-0.3,1.2-0.5,1.8-0.8c1.7,2.6,3.5,5.2,5,7.9
					c4.2,7.4,4.2,7.4,13.4,6.7c-2.8-5.1-5.4-9.9-8.1-14.9C197.8,120.2,200.1,119.1,200.6,117.5z M187.3,115.4c-1,0-2-0.2-3.3-0.4
					c-0.2-1.7-0.7-3.3-0.5-4.8c0.4-2.9-2-7.6,4-7.4c4.2,0.1,7.1,1.8,7,6.4C194.4,113.9,191.6,115.6,187.3,115.4z"/>
			</g>
			<path class="st7" d="M262.6,136.6c0-13.8,0-26.9,0-40.5c-2.9,0-5.4,0-8.4,0c0,13.5,0,26.8,0,40.5
				C257,136.6,259.5,136.6,262.6,136.6z"/>
		</g>
	</g>
	<g>
		<g>
			<path class="st9" d="M196.3,172.9c-5.2-9.1-9.6-17.1-14.5-24.9c-1.2-1.9-3.7-3.1-6.9-5.6c0,15.9,0,29.4,0,43.3c1.5,0,2.9,0,5,0
				c0-9.3,0-18.5,0-27.7c0.5-0.1,0.9-0.2,1.4-0.4c4.6,7.9,9.3,15.9,14.8,25.4c5.6-9.3,10.3-17.3,16.1-26.9c0,10.9,0,19.9,0,29.3
				c2.1,0.2,3.6,0.4,5.4,0.6c0-14,0-27.6,0-41.4c-1.6-0.1-2.9-0.2-4.8-0.3C207.6,153.5,202.3,162.7,196.3,172.9z"/>
			<path class="st9" d="M389,185.8c1.7,0,3.1,0,5.1,0c0-9.9,0-19.6,0-29.3c0.5-0.2,0.9-0.3,1.4-0.5c5.7,8.7,12.4,22.1,18.3,30.7
				c1.4,2,2.6,1.2,6.1,1.2c0-15.8,0-29.2,0-43.2c-1.5-0.1-2.9-0.2-4.8-0.3c0,10.2-0.2,20.5-0.2,30.2c-0.4,0.2-0.7-0.2-1.1,0
				c-6.5-9.9-12.9-19.8-19.6-30c-1.6,0-3.3,0-5.3,0C389,158.2,389,171.7,389,185.8z"/>
			<path class="st9" d="M332.9,185.7c2.2,0,3.7,0,5.5,0c0-13.6,0-27,0-41c-1.5-0.1-3-0.2-5.3-0.4c0,6.2,0,11.9,0,18
				c-7,0-13.2,0-20,0c0-5.8,0-11.4,0-17.6c-2.2-0.1-3.8-0.2-5.6-0.3c0,14,0,27.4,0,41.2c1.7,0,3.2,0,5.2,0c0-5.8,0-11.5,0-17.7
				c6.8,0,13.1,0,20.2,0C332.9,173.8,332.9,179.6,332.9,185.7z"/>
			<g>
				<path class="st8" d="M499.1,170c4.8,0,8.9,0,14.1,0c-2.3-6.5-4.4-12.6-7-19.8C503.6,157.5,501.5,163.5,499.1,170z"/>
				<path class="st9" d="M503,144.6c-5.1,13.6-10.2,27.1-15.4,41.1c2.1,0,3.8,0,5.7,0c1.3-3.4,2.6-6.8,4-10.3c5.6,0,11.3,0,17.4,0
					c1.3,3.2,2.7,6.5,4.2,10.4c1.5,0.1,3.2,0.2,5.9,0.5c-5.3-14.2-10.4-27.8-15.5-41.6C506.8,144.6,505.1,144.6,503,144.6z
					 M499.1,170c2.3-6.5,4.5-12.5,7.1-19.8c2.5,7.2,4.7,13.3,7,19.8C508,170,503.9,170,499.1,170z"/>
			</g>
			<path class="st9" d="M298.7,175.7c-0.8-0.7-1.7-1.5-2.5-2.1c-11.5,10.3-22.6,14.1-30.1-3.4c-3.6-8.3,1.3-17.5,8.6-20.6
				c7.6-3.2,14.5-0.4,19.4,8.1c1.5,0,3.3,0,5,0c-2.5-9.4-10.2-14.9-19.9-14.1c-10.3,0.8-18,8.2-19.4,18.7
				c-1.3,10,4.3,19.7,13.2,23.1C283,189.1,293,185.4,298.7,175.7z"/>
			<path class="st9" d="M483.9,175.8c-1.1-0.9-2-1.6-2.9-2.3c-10,9.8-20.3,10.9-26.8,3.2c-6.2-7.4-4.7-20.5,2.9-25.7
				c7.8-5.2,16.6-2.7,22,6.7c1.6,0,3.3,0,5.1,0c-2.7-9.5-10-14.7-19.5-14.2c-10.2,0.5-18.2,7.8-19.8,18.2
				c-1.5,9.9,3.8,19.8,12.7,23.4C467.3,189.1,477,185.9,483.9,175.8z"/>
			<path class="st9" d="M234,162.7c0-4.9,0-8.7,0-13.3c5.8,0,11.6,0,17.7,0c0.4-1.8,0.6-3.1,1-4.8c-8.2,0-16,0-24.1,0
				c0,13.6,0,27,0,40.9c7.9,0,15.9,0,24.3,0c0.1-1.1,0.2-2.3,0.4-4.3c-6.5,0-12.7,0-19.1,0c0-4.7,0-8.7,0-13.4c5.4,0,10.7,0,16.5,0
				c0.2-1.9,0.3-3.2,0.5-5.1C245.3,162.7,239.9,162.7,234,162.7z"/>
			<path class="st9" d="M537,144.7c-2.4,0-3.9,0-5.6,0c0,13.7,0,27.1,0,41c7.8,0,15.4,0,23.5,0c0.1-1.1,0.2-2.4,0.3-4.3
				c-6.1,0-11.9,0-18.2,0C537,169,537,157.2,537,144.7z"/>
			<path class="st9" d="M431.4,185.7c1.5,0,2.8,0,4.5,0c0-13.6,0-27.1,0-41c-1.5,0-2.8,0-4.5,0C431.4,158.3,431.4,171.8,431.4,185.7
				z"/>
			<g>
				<path class="st9" d="M367,144.5c-2.4,0-4.2,0-6.4,0c-5.1,13.6-10.1,27-15.4,41.1c2.1,0.1,3.7,0.2,5.6,0.4
					c1.4-3.6,2.7-7,4.2-10.6c5.6,0,11.2,0,17.5,0c1.3,3.2,2.8,6.7,4.3,10.4c1.8,0,3.5,0,5.7,0C377.3,171.9,372.2,158.4,367,144.5z
					 M356.8,170.1c2.3-6.4,4.5-12.4,7.1-19.9c2.6,7.4,4.7,13.4,7,19.9C365.8,170.1,361.7,170.1,356.8,170.1z"/>
			</g>
		</g>
	</g>
</g>
<text transform="matrix(1 0 0 1 174.9702 205.8026)"><tspan x="0" y="0" class="st10 st11 st12">H</tspan><tspan x="13.2" y="0" class="st10 st11 st12">E</tspan><tspan x="23.8" y="0" class="st10 st11 st12">A</tspan><tspan x="35.6" y="0" class="st10 st11 st12">TING</tspan><tspan x="79.6" y="0" class="st10 st11 st12 st13"> </tspan><tspan x="82.8" y="0" class="st10 st11 st12">CO</tspan><tspan x="108.9" y="0" class="st10 st11 st12">O</tspan><tspan x="122.5" y="0" class="st10 st11 st12">L</tspan><tspan x="131.3" y="0" class="st10 st11 st12">ING</tspan><tspan x="164.6" y="0" class="st10 st11 st12"> </tspan><tspan x="168.7" y="0" class="st10 st11 st12">&amp;</tspan><tspan x="183.6" y="0" class="st10 st11 st12"> </tspan><tspan x="187.7" y="0" class="st10 st11 st12">D</tspan><tspan x="200.7" y="0" class="st10 st11 st12">UC</tspan><tspan x="226.3" y="0" class="st10 st11 st12 st14">T</tspan><tspan x="244" y="0" class="st10 st11 st12 st15"> </tspan><tspan x="241" y="0" class="st10 st11 st12">SE</tspan><tspan x="260" y="0" class="st10 st11 st12">RV</tspan><tspan x="283.4" y="0" class="st10 st11 st12">I</tspan><tspan x="288" y="0" class="st10 st11 st12">C</tspan><tspan x="299.2" y="0" class="st10 st11 st12">E</tspan><tspan x="309" y="0" class="st10 st11 st12">S</tspan></text>
<polygon class="st16" points="139.1,315.6 176.5,333.3 194.5,408.8 155.6,499.5 108.6,478.6 59.9,367.1 70.7,329.7 "/>
<polygon class="st17" points="64.7,324.8 16.9,310.6 36.7,341.3 69.8,348.5 87.4,338.5 73.7,322.9 "/>
<polygon class="st18" points="70.5,329.1 102.7,310.6 128.4,310.6 161.9,338.5 178.4,403.9 144.6,475.9 120.1,475.9 107.5,464.4 
	50.8,399.6 60,343.5 "/>
<polygon class="st17" points="133.1,338.5 145.3,338.5 166.2,308.2 161.2,282.8 143.2,296.7 "/>
<polygon class="st19" points="12.9,460 16.9,473 21.4,477.3 25.9,493.9 42.9,507.8 82,495.3 102.6,470.8 128.4,424.8 156.8,414.7 
	156.8,389.5 128.4,365.1 97.8,370.8 69.8,348.5 60,360 42.9,388.1 42.9,408.2 "/>
<polygon class="st20" points="0,369.4 16.9,428.2 42.9,445.7 53.9,422.6 50.8,410.4 16.9,388.8 "/>
<polygon class="st20" points="56.8,380.2 78.4,376.6 78.4,359.3 60,354.3 46.8,338.5 46.8,359.3 "/>
<polygon class="st21" points="116.6,410.4 120.1,401.8 139.6,395.3 132.4,410.4 "/>
<polygon class="st22" points="53.9,479.5 66.9,466.5 87.4,466.5 73.7,479.5 "/>
<polyline class="st22" points="21.4,461.5 26.9,466.5 21.4,470.1 16.9,461.5 "/>
<polygon class="st22" points="139.6,332.7 149.6,306.1 156.8,296 156.8,306.1 "/>
<polygon class="st22" points="39.6,332.7 26.9,319 53.9,332.7 "/>
<g>
	<g>
		<g>
			<path class="st7" d="M280.6,337.4c-1.7,0-3.2,0-5.4,0c0,5.6,0,11.2,0,16.9c-0.4,0.1-0.8,0.2-1.2,0.3c-2.3-4.3-4.5-8.6-6.8-12.9
				c-2.6-4.9-2.6-4.9-8.8-4.1c0,9.2,0,18.4,0,27.9c1.7,0,3.3,0,5.3,0c0-5.6,0-11,0-16.5c0.3-0.1,0.6-0.3,1-0.4
				c1.1,1.9,2.3,3.8,3.3,5.7c1.2,2.2,2.7,4.4,3.5,6.7c1.6,4.5,4.5,5.6,9,4.2C280.6,356.1,280.6,346.9,280.6,337.4z"/>
			<path class="st7" d="M286.2,351.2c0,8.4,6.4,14.7,15.1,14.7c8.8,0,15.3-6,15.4-14.5c0.2-8.1-6.5-14.7-15.1-14.9
				C293.1,336.5,286.2,343,286.2,351.2z M301.6,360.7c-5,0-8.9-4.1-9-9.3c0-5.1,4-9.4,8.9-9.3c4.7,0.1,8.7,4.2,8.9,9
				C310.6,356.1,306.3,360.7,301.6,360.7z"/>
			<path class="st7" d="M237.6,337.4c-2,0-3.7,0-6,0c0,3.4,0,6.9,0,10.8c-3.4,0-6.4,0-9.8,0c-0.1-2-0.2-4.1-0.3-6.1
				c-0.1-5.2-0.2-5.3-6-4.4c0,9.2,0,18.4,0,27.6c5.8,1,5.9,0.9,6-4.6c0-2.1,0-4.2,0-6.4c3.5,0,6.4,0,9.8,0c0,3.8,0,7.4,0,11.3
				c2.3,0,4.2,0,6.3,0C237.6,356.1,237.6,346.9,237.6,337.4z"/>
			<g>
				<path class="st8" d="M198.9,342.1c-4.2-0.1-2.5,3.1-2.8,5.1c-0.1,1,0.2,2.2,0.3,3.3c0.9,0.1,1.6,0.2,2.3,0.3
					c2.9,0.1,4.9-1,5-4.2C203.8,343.3,201.8,342.2,198.9,342.1z"/>
				<path class="st7" d="M207.9,352.2c0.8-3,1.9-6.2,1.4-9.1c-0.5-3.7-3.8-5.5-7.4-5.8c-3.7-0.3-7.5-0.1-11.8-0.1
					c0,9.6,0,18.8,0,28.2c1.8,0,3.4,0,5.5,0c0.2-3.1,0.5-6.3,0.7-9.6c0.4-0.2,0.9-0.4,1.3-0.5c1.2,1.8,2.4,3.6,3.5,5.5
					c2.9,5.1,2.9,5.1,9.3,4.7c-1.9-3.5-3.7-6.9-5.6-10.3C206,354.1,207.6,353.4,207.9,352.2z M198.7,350.8c-0.7,0-1.4-0.2-2.3-0.3
					c-0.1-1.2-0.5-2.3-0.3-3.3c0.3-2-1.4-5.2,2.8-5.1c2.9,0.1,4.9,1.2,4.8,4.5C203.6,349.8,201.7,350.9,198.7,350.8z"/>
			</g>
			<path class="st7" d="M250.9,365.5c0-9.6,0-18.7,0-28.1c-2,0-3.8,0-5.8,0c0,9.3,0,18.6,0,28.1C247,365.5,248.8,365.5,250.9,365.5z
				"/>
		</g>
	</g>
	<g>
		<g>
			<path class="st9" d="M336.1,355.6c-3.6-6.3-6.7-11.9-10-17.2c-0.8-1.3-2.6-2.1-4.8-3.9c0,11,0,20.4,0,30c1.1,0,2,0,3.5,0
				c0-6.4,0-12.8,0-19.2c0.3-0.1,0.7-0.2,1-0.2c3.2,5.5,6.4,11,10.3,17.6c3.9-6.5,7.2-12,11.2-18.7c0,7.5,0,13.8,0,20.4
				c1.4,0.2,2.5,0.3,3.8,0.4c0-9.7,0-19.1,0-28.7c-1.1-0.1-2-0.1-3.3-0.2C343.9,342.1,340.2,348.5,336.1,355.6z"/>
			<path class="st9" d="M469.7,364.5c1.2,0,2.1,0,3.5,0c0-6.8,0-13.6,0-20.3c0.3-0.1,0.6-0.2,1-0.3c3.9,6.1,8.6,15.4,12.7,21.3
				c1,1.4,1.8,0.8,4.3,0.8c0-10.9,0-20.3,0-29.9c-1-0.1-2-0.1-3.3-0.2c0,7.1-0.1,14.2-0.1,20.9c-0.3,0.1-0.5-0.1-0.8,0
				c-4.5-6.9-9-13.7-13.6-20.8c-1.1,0-2.3,0-3.7,0C469.7,345.4,469.7,354.7,469.7,364.5z"/>
			<path class="st9" d="M430.8,364.5c1.5,0,2.6,0,3.8,0c0-9.4,0-18.8,0-28.4c-1-0.1-2.1-0.1-3.7-0.2c0,4.3,0,8.3,0,12.5
				c-4.8,0-9.1,0-13.9,0c0-4,0-7.9,0-12.2c-1.5-0.1-2.6-0.1-3.9-0.2c0,9.7,0,19,0,28.6c1.2,0,2.2,0,3.6,0c0-4,0-8,0-12.3
				c4.7,0,9.1,0,14,0C430.8,356.2,430.8,360.2,430.8,364.5z"/>
			<g>
				<path class="st8" d="M546.1,353.6c3.3,0,6.2,0,9.8,0c-1.6-4.5-3.1-8.7-4.8-13.7C549.2,344.9,547.7,349.1,546.1,353.6z"/>
				<path class="st9" d="M548.8,335.9c-3.5,9.4-7,18.8-10.7,28.5c1.5,0,2.6,0,4,0c0.9-2.3,1.8-4.7,2.8-7.2c3.9,0,7.8,0,12.1,0
					c0.9,2.2,1.9,4.5,2.9,7.2c1,0.1,2.2,0.2,4.1,0.3c-3.7-9.9-7.2-19.3-10.7-28.8C551.4,335.9,550.2,335.9,548.8,335.9z
					 M546.1,353.6c1.6-4.5,3.1-8.7,4.9-13.7c1.8,5,3.2,9.2,4.8,13.7C552.2,353.6,549.4,353.6,546.1,353.6z"/>
			</g>
			<path class="st9" d="M407.1,357.5c-0.6-0.5-1.2-1-1.7-1.5c-8,7.2-15.7,9.8-20.9-2.3c-2.5-5.7,0.9-12.2,5.9-14.3
				c5.3-2.2,10-0.3,13.5,5.6c1.1,0,2.3,0,3.5,0c-1.7-6.5-7.1-10.3-13.8-9.8c-7.1,0.5-12.5,5.7-13.4,13c-0.9,7,3,13.7,9.2,16
				C396.2,366.8,403.1,364.3,407.1,357.5z"/>
			<path class="st9" d="M535.5,357.6c-0.8-0.6-1.4-1.1-2-1.6c-7,6.8-14.1,7.6-18.6,2.2c-4.3-5.1-3.3-14.2,2-17.8
				c5.4-3.6,11.5-1.8,15.3,4.7c1.1,0,2.3,0,3.5,0c-1.9-6.6-7-10.2-13.6-9.9c-7.1,0.3-12.6,5.4-13.7,12.7c-1.1,6.9,2.6,13.7,8.8,16.2
				C524,366.8,530.7,364.6,535.5,357.6z"/>
			<path class="st9" d="M362.2,348.5c0-3.4,0-6.1,0-9.2c4,0,8,0,12.3,0c0.3-1.3,0.4-2.1,0.7-3.3c-5.7,0-11.1,0-16.7,0
				c0,9.4,0,18.7,0,28.3c5.5,0,11,0,16.9,0c0.1-0.7,0.1-1.6,0.3-3c-4.5,0-8.8,0-13.3,0c0-3.3,0-6,0-9.3c3.7,0,7.4,0,11.4,0
				c0.1-1.3,0.2-2.2,0.3-3.5C370.1,348.5,366.3,348.5,362.2,348.5z"/>
			<path class="st9" d="M572.3,336c-1.6,0-2.7,0-3.9,0c0,9.5,0,18.8,0,28.4c5.4,0,10.7,0,16.3,0c0.1-0.8,0.1-1.7,0.2-3
				c-4.2,0-8.2,0-12.6,0C572.3,352.9,572.3,344.7,572.3,336z"/>
			<path class="st9" d="M499.1,364.4c1,0,1.9,0,3.1,0c0-9.4,0-18.8,0-28.4c-1,0-1.9,0-3.1,0C499.1,345.4,499.1,354.8,499.1,364.4z"
				/>
			<g>
				<path class="st9" d="M454.5,335.9c-1.7,0-2.9,0-4.4,0c-3.5,9.4-7,18.8-10.7,28.5c1.4,0.1,2.6,0.2,3.9,0.2c1-2.5,1.9-4.9,2.9-7.4
					c3.9,0,7.8,0,12.1,0c0.9,2.2,1.9,4.7,3,7.2c1.2,0,2.4,0,3.9,0C461.6,354.9,458.1,345.5,454.5,335.9z M447.3,353.6
					c1.6-4.5,3.1-8.6,4.9-13.8c1.8,5.2,3.3,9.3,4.8,13.8C453.6,353.6,450.7,353.6,447.3,353.6z"/>
			</g>
		</g>
	</g>
</g>
<text transform="matrix(1 0 0 1 276.9647 384.1841)"><tspan x="0" y="0" class="st10 st11 st23">H</tspan><tspan x="9.1" y="0" class="st10 st11 st23">E</tspan><tspan x="16.5" y="0" class="st10 st11 st23">A</tspan><tspan x="24.7" y="0" class="st10 st11 st23">TING</tspan><tspan x="55.2" y="0" class="st10 st11 st23 st13"> </tspan><tspan x="57.4" y="0" class="st10 st11 st23">CO</tspan><tspan x="75.5" y="0" class="st10 st11 st23">O</tspan><tspan x="85" y="0" class="st10 st11 st23">L</tspan><tspan x="91" y="0" class="st10 st11 st23">ING</tspan><tspan x="114.2" y="0" class="st10 st11 st23"> </tspan><tspan x="117" y="0" class="st10 st11 st23">&amp;</tspan><tspan x="127.3" y="0" class="st10 st11 st23"> </tspan><tspan x="130.2" y="0" class="st10 st11 st23">D</tspan><tspan x="139.2" y="0" class="st10 st11 st23">UC</tspan><tspan x="157" y="0" class="st10 st11 st23 st24">T</tspan><tspan x="169.2" y="0" class="st10 st11 st23 st25"> </tspan><tspan x="167.2" y="0" class="st10 st11 st23">SE</tspan><tspan x="180.3" y="0" class="st10 st11 st23">RV</tspan><tspan x="196.5" y="0" class="st10 st11 st23">I</tspan><tspan x="199.7" y="0" class="st10 st11 st23">C</tspan><tspan x="207.5" y="0" class="st10 st11 st23">E</tspan><tspan x="214.3" y="0" class="st10 st11 st23">S</tspan></text>
</svg>
