<?xml version="1.0" standalone="no"?>
<!DOCTYPE svg PUBLIC "-//W3C//DTD SVG 20010904//EN"
 "http://www.w3.org/TR/2001/REC-SVG-20010904/DTD/svg10.dtd">
<svg version="1.0" xmlns="http://www.w3.org/2000/svg"
 width="417.000000pt" height="417.000000pt" viewBox="0 0 417.000000 417.000000"
 preserveAspectRatio="xMidYMid meet">
<metadata>
Created by potrace 1.11, written by Peter Selinger 2001-2013
</metadata>
<g transform="translate(0.000000,417.000000) scale(0.100000,-0.100000)"
fill="#000000" stroke="none">
<path d="M835 3666 c-2 -12 -3 -51 -2 -88 2 -37 1 -71 -2 -76 -3 -4 -46 -8
-96 -7 l-90 0 -2 -85 c-1 -47 -2 -91 -2 -97 -1 -9 -21 -12 -63 -12 -35 0 -78
0 -95 0 l-33 -1 -2 -192 -3 -192 -75 1 c-122 3 -115 8 -115 -99 l0 -93 -90 -1
c-50 -1 -92 -2 -95 -3 -3 -1 -6 -85 -5 -188 l0 -188 95 -5 95 -5 1 -85 c1 -47
2 -89 3 -95 0 -6 39 -10 93 -10 l93 0 5 -95 5 -95 188 0 187 0 1 -25 c1 -14 1
-58 1 -97 l0 -73 97 0 97 0 0 -190 c0 -125 -4 -190 -10 -191 -6 -1 -49 -2 -96
-3 l-85 -1 0 -95 0 -95 50 -2 c28 -1 71 -2 97 -2 l46 -1 -2 -77 c-3 -125 -36
-112 293 -115 l286 -3 -1 -92 -1 -93 76 -1 c128 -2 116 8 118 -89 0 -47 1 -90
2 -96 1 -7 34 -10 94 -10 l92 1 3 -96 3 -96 287 1 287 1 1 75 c1 41 2 84 3 95
1 18 8 20 94 20 l92 1 2 154 c1 85 2 172 2 192 l1 38 192 2 193 3 -1 92 c-1
51 2 93 5 94 3 0 47 0 97 1 l91 0 -1 90 c-1 51 3 92 9 96 5 4 44 8 85 8 41 1
81 2 88 3 9 1 12 27 12 96 l0 96 58 -2 c31 -1 75 -1 97 0 l40 1 0 287 0 288
90 1 c50 1 92 2 95 3 3 1 5 43 5 93 l0 93 95 5 96 5 -2 280 c-1 154 -2 283 -3
286 0 4 -34 7 -73 7 -40 0 -82 0 -94 1 -20 1 -20 6 -20 182 1 99 -2 185 -5
191 -4 5 -46 11 -95 11 l-89 2 -2 35 c-1 19 -2 62 -2 96 l-1 60 -95 -1 -95 -1
0 97 0 96 -97 -1 -98 -1 1 -90 c0 -49 -3 -92 -7 -95 -5 -3 -48 -5 -97 -5 l-89
0 1 -278 c1 -154 -2 -284 -6 -290 -3 -6 -44 -10 -97 -10 l-91 0 0 -288 0 -289
94 0 c66 0 95 -4 98 -12 2 -7 3 -94 3 -193 l-1 -180 -94 -1 -95 0 -3 -97 -3
-97 -94 0 c-83 0 -95 2 -96 18 -1 9 0 51 0 93 1 55 -2 78 -11 81 -7 2 -50 4
-95 3 -69 -1 -83 1 -84 14 -1 9 -1 51 -1 94 0 50 -4 78 -12 79 -6 0 -49 2 -96
2 l-85 2 -1 193 0 194 -96 -1 -96 0 -1 131 c0 73 0 160 -1 194 l0 61 -82 0
c-46 0 -89 0 -95 1 -10 1 -13 46 -13 191 l0 190 -27 1 c-16 0 -59 1 -98 2
l-69 2 -1 95 0 95 -96 0 -96 0 1 95 1 95 -383 1 c-380 1 -383 0 -387 -20z"/>
</g>
</svg>
