<?xml version="1.0" encoding="utf-8"?>
<!-- Generator: Adobe Illustrator 21.0.0, SVG Export Plug-In . SVG Version: 6.00 Build 0)  -->
<svg version="1.1" id="Layer_1" xmlns="http://www.w3.org/2000/svg" xmlns:xlink="http://www.w3.org/1999/xlink" x="0px" y="0px"
	 viewBox="0 0 1059.5 308.2" style="enable-background:new 0 0 1059.5 308.2;" xml:space="preserve">
<style type="text/css">
	.st0{fill:#E6E7E8;}
	.st1{fill:#0C0100;}
	.st2{fill:#FFFFFF;}
	.st3{fill:#F7DEC0;stroke:#F7DEC0;stroke-linecap:round;stroke-miterlimit:10;}
	.st4{fill:#C69C6D;stroke:#C69C6D;stroke-linecap:round;stroke-miterlimit:10;}
	.st5{fill:#F7DEC0;}
	.st6{fill:#42210B;}
	.st7{fill:#FF7BAC;}
	.st8{stroke:#231F20;stroke-linecap:round;stroke-miterlimit:10;}
	.st9{fill:#C1272D;}
	.st10{fill:#FFFFFF;stroke:#FFFFFF;stroke-linecap:round;stroke-miterlimit:10;}
	.st11{fill:#B3B3B3;stroke:#B3B3B3;stroke-linecap:round;stroke-miterlimit:10;}
	.st12{fill:#E6E6E6;}
	.st13{fill:#999999;}
	.st14{fill:#00A99D;}
	.st15{fill:#FCC420;stroke:#FCC420;stroke-linecap:round;stroke-miterlimit:10;}
	.st16{fill:#FBB03B;}
	.st17{fill:#FCEE21;}
	.st18{fill:#FBB03B;stroke:#FBB03B;stroke-linecap:round;stroke-miterlimit:10;}
	.st19{fill:#D4B99C;stroke:#D4B99C;stroke-linecap:round;stroke-miterlimit:10;}
	.st20{fill:#FCC420;}
</style>
<ellipse class="st0" cx="945.3" cy="294.3" rx="70.3" ry="11.9"/>
<g>
	<g>
		<g>
			<path d="M153.8,127.2c1.3-4-0.8-8.4-4.1-11s-7.5-3.6-11.6-4.3c-3.3-0.6-6.6-0.9-10-1.1c-2.1-0.1-4.5,0-6.2,1.3
				c-3,2.4-2.2,7.3,0,10.5c3,4.2,7.8,7,12.9,8.2c5.1,1.3,10.4,1.1,15.6,0.6c1.7-0.2,3.7-0.6,4.5-2.2c0.3-0.7,0.4-1.5,0.4-2.3
				c0.1-3.1-0.5-7-3.4-7.7"/>
			<g>
				<path class="st1" d="M155.2,127.6c2.2-8-4.7-13.9-11.6-16c-4.3-1.3-9-1.8-13.5-2.1c-3.5-0.2-7.8-0.5-10.1,2.7
					c-4.3,5.8,1.7,13.2,6.5,16.4c7.1,4.7,16.4,5.2,24.7,4.1c4.1-0.6,5.8-2.8,5.7-6.9c-0.1-3.3-1-6.8-4.5-7.9
					c-1.7-0.6-2.5,2.1-0.7,2.7c2.8,0.9,3.6,7.8,0.9,9c-1.5,0.7-3.8,0.6-5.4,0.7c-2,0.1-4.1,0.1-6.1,0c-6.8-0.4-15.2-3.2-18.5-9.8
					c-1.6-3.1-1.6-7.4,2.5-8.2c4-0.8,8.9,0.2,12.9,0.9c6.6,1.1,17.1,4.8,14.7,13.6C152,128.6,154.7,129.3,155.2,127.6L155.2,127.6z"
					/>
			</g>
		</g>
		<g>
			<path class="st2" d="M119.1,119.7c-2,1.2-3,3.7-2.7,5.9c0.2,2.2,1.4,4.1,2.7,5.9c1.7,2.5,3.8,4.8,6.6,6.1
				c6.1,2.8,14.7-0.7,17.4-7c2.7-6.2-0.9-13.8-7.3-16c-6.4-2.3-14.5,0.7-18.3,6.5"/>
		</g>
		<ellipse transform="matrix(0.772 -0.6356 0.6356 0.772 -62.797 129.6357)" class="st3" cx="149.3" cy="152.4" rx="31" ry="10.8"/>
		
			<rect x="139.2" y="110.9" transform="matrix(0.5382 -0.8428 0.8428 0.5382 -11.6802 204.8268)" class="st4" width="83.8" height="4.3"/>
		<g>
			<path class="st5" d="M61.8,165.6c-2.9,0.3-5.5,2-7.3,4.2s-2.7,4.8-3.3,7.5c-1.5,6.7-0.7,13.8,2.3,20.1l-2.6-8.9
				c-9.5,6.3-13.6,18.2-11.6,28.8s9.6,19.9,19.1,26.2c20.3,13.2,49.8,12.1,69.7-1.6s29.4-38.7,24.4-61.2c-1.5-7-4.3-13.6-7-20.3
				c-6.2-15.3-12-30.7-17.5-46.3l0.7,1.5c-2.7-6.5-8.7-11.6-15.6-14.2c-7-2.6-14.9-2.8-22.2-1.4c-9.2,1.8-18.1,6.3-22.9,13.8
				c-4.5,7-4.9,15.7-3,23.6s6,15.2,10,22.4l-5.5-13.2c-3.4-0.4-6.7,2-8.1,4.9s-1.1,6.3-0.5,9.4c1.6,8,5.5,15.5,9.6,22.7
				c-0.2-0.3-0.5-0.7-0.7-1"/>
			<g>
				<path class="st5" d="M61.6,164.9c-14.4,2.2-13.1,23.1-8.7,32.8c0.3,0.7,1.5,0.2,1.3-0.6c-0.8-3-1.7-5.9-2.6-8.9
					c-0.1-0.4-0.7-0.7-1-0.4c-6.8,4.7-11.1,12-12.2,20.2c-1.1,8.6,1.8,17.1,6.9,24.1c10.7,14.4,28.9,21.4,46.5,21.3
					c17.8,0,35.4-6.9,47.4-20.3c11.4-12.7,17.2-30.3,15.2-47.3c-1.4-12-6.9-23.1-11.3-34.3c-4.9-12.5-9.6-25.1-14.1-37.8
					c-0.4,0.2-0.8,0.4-1.3,0.6c0.2,0.5,0.5,1,0.7,1.5c0.4,0.8,1.5,0.1,1.2-0.7C123,99.6,103.7,96,88.9,99.6
					c-7.2,1.7-14.4,5.3-19.2,11c-5,6-6.7,14-5.9,21.7c1.1,10,6.1,19,11,27.7c0.4,0.7,1.6,0.2,1.3-0.6c-1.9-4.4-3.7-8.8-5.5-13.2
					c-0.1-0.3-0.3-0.5-0.7-0.5c-3-0.2-5.8,1.2-7.6,3.5c-2.3,3-2.3,6.9-1.8,10.4c1.4,8.6,5.6,16.5,9.9,24c0.4-0.2,0.8-0.5,1.2-0.7
					c-0.2-0.3-0.5-0.7-0.7-1c-0.5-0.7-1.7,0-1.2,0.7c0.2,0.3,0.5,0.7,0.7,1c0.5,0.7,1.7,0.1,1.2-0.7c-3.4-6.1-6.8-12.2-8.7-19
					c-1-3.4-1.9-7.2-1-10.7c0.9-3.7,4.1-6.5,8-6.2c-0.2-0.2-0.5-0.3-0.7-0.5c1.9,4.4,3.7,8.8,5.5,13.2c0.4-0.2,0.8-0.4,1.3-0.6
					c-7.4-13.3-16.5-30.7-7-45.4c8.1-12.6,27-16.6,40.7-13.1c8.1,2,15.5,7.2,18.8,15c0.4-0.2,0.8-0.5,1.2-0.7
					c-0.2-0.5-0.5-1-0.7-1.5c-0.3-0.7-1.5-0.2-1.3,0.6c3.6,10.4,7.5,20.7,11.4,30.9c3.8,9.8,8.2,19.4,11.4,29.4
					c5.2,16.4,3.2,34.1-5.8,48.9c-9,14.8-24,24.4-41,27.5c-17.1,3.1-36-0.4-49.5-11.7c-7.5-6.1-13.6-14.9-14.4-24.8
					c-0.8-9.8,3.5-19.7,11.6-25.3c-0.3-0.1-0.7-0.3-1-0.4c0.8,3,1.7,5.9,2.6,8.9c0.4-0.2,0.8-0.4,1.3-0.6c-4.1-9-5.5-28.6,7.9-30.7
					C62.9,166.1,62.5,164.8,61.6,164.9L61.6,164.9z"/>
			</g>
		</g>
		<g>
			<path d="M73.8,131.3c-3.3-2.6-8.2-2-11.7,0.2s-5.9,5.9-7.9,9.5c-1.6,2.9-3,6-4.3,9c-0.8,2-1.5,4.2-0.8,6.3
				c1.2,3.7,6.2,4.5,9.9,3.4c5-1.4,9.2-5.1,12.1-9.5c2.8-4.4,4.5-9.4,5.7-14.5c0.4-1.7,0.7-3.7-0.6-5c-0.6-0.6-1.3-0.8-2-1.1
				c-2.9-1.1-6.8-1.9-8.4,0.7"/>
			<g>
				<path class="st1" d="M74.2,130.7c-6.4-4.5-13.9,0-17.9,5.5c-2.6,3.5-4.5,7.5-6.2,11.5c-1.4,3.1-3.2,7-1,10.2
					c3.8,5.5,12.3,2.4,16.5-0.7c6.7-5,10.1-13.2,11.8-21.2c0.8-3.8-0.1-6-3.9-7.2c-2.9-1-6.3-1.4-8.4,1.3c-0.6,0.7,0.7,1.4,1.2,0.7
					c1.3-1.7,3.5-1.5,5.4-1.1c2.3,0.5,4.7,1.3,4.7,4.1c0,1.9-0.8,4-1.4,5.8c-0.6,2-1.3,4.1-2.2,6c-2.9,6.4-8.8,13.6-16.4,13.8
					c-4.5,0.2-7.8-2.5-6.4-7.3c1.1-3.9,3.2-7.6,5.1-11.1c3.4-6.2,10.9-14.5,18.5-9.1C74.2,132.4,74.9,131.2,74.2,130.7L74.2,130.7z"
					/>
			</g>
		</g>
		<g>
			<path class="st2" d="M85.6,130.9c-2,1.2-3,3.7-2.7,5.9c0.2,2.2,1.4,4.1,2.7,5.9c1.7,2.5,3.8,4.8,6.6,6.1c6.1,2.8,14.7-0.7,17.4-7
				c2.7-6.2-0.9-13.8-7.3-16c-6.4-2.3-14.5,0.7-18.3,6.5"/>
		</g>
		<g>
			<path class="st6" d="M83.5,133.4c-0.7,0.4-1,1.2-0.9,2c0.1,0.7,0.5,1.4,0.9,2c0.6,0.8,1.3,1.6,2.2,2c2,0.9,4.9-0.3,5.8-2.3
				s-0.3-4.6-2.4-5.3s-4.8,0.3-6.1,2.1"/>
			<g>
				<path class="st6" d="M82.7,132.2c-3,2.3-1.2,6.1,1.5,7.9c2.5,1.7,6.2,0.8,7.9-1.7c1.8-2.6,0.7-6.3-2-7.7c-3-1.6-6.6,0-8.4,2.5
					c-1.1,1.4,1.4,2.8,2.4,1.4c0.8-1.2,2.4-1.9,3.8-1.7c1.6,0.2,2.8,2,2.2,3.5c-0.5,1.2-2,2-3.3,1.8c-0.9-0.1-3.8-2.7-2.6-3.6
					C85.6,133.5,84.2,131.1,82.7,132.2L82.7,132.2z"/>
			</g>
		</g>
		<g>
			<path class="st6" d="M138.9,119c-0.7,0.4-1,1.2-0.9,2c0.1,0.7,0.5,1.4,0.9,2c0.6,0.8,1.3,1.6,2.2,2c2,0.9,4.9-0.3,5.8-2.3
				s-0.3-4.6-2.4-5.3c-2.1-0.7-4.8,0.3-6.1,2.1"/>
			<g>
				<path class="st6" d="M138.1,117.8c-3,2.3-1.2,6.1,1.5,7.9c2.5,1.7,6.2,0.8,7.9-1.7c1.8-2.6,0.7-6.3-2-7.7c-3-1.6-6.6,0-8.4,2.5
					c-1.1,1.4,1.4,2.8,2.4,1.4c0.8-1.2,2.4-1.9,3.8-1.7c1.6,0.2,2.8,2,2.2,3.5c-0.5,1.2-2,2-3.3,1.8c-0.9-0.1-3.8-2.7-2.6-3.6
					C141,119.1,139.6,116.7,138.1,117.8L138.1,117.8z"/>
			</g>
		</g>
		<g>
			<path d="M127.4,129.8c-3.8,0.9-7.4,2.8-10.2,5.4c2,2.2,4.5,4,7.3,5.2c0.5,0.2,1.1,0.4,1.6,0.3c0.9-0.2,1.4-1.2,1.6-2.1
				c0.8-2.8,1.1-5.7,1-8.6"/>
			<g>
				<path class="st1" d="M126.9,128.5c-4.1,1-7.7,3-10.8,5.8c-0.6,0.5-0.5,1.4,0,2c1.5,1.6,3.3,3.1,5.2,4.2c1.5,0.9,3.5,2.1,5.4,1.5
					c1.6-0.6,2.1-2.3,2.5-3.8c0.7-2.7,0.9-5.4,0.8-8.1c0-1.8-2.8-1.8-2.8,0c0,1.4,0,2.9-0.1,4.3c-0.1,1-0.3,2-0.6,3.1
					c-0.1,0.3-0.1,0.6-0.2,0.8c0,0.7-0.3,1-1,0.7c-2.5,0.2-5.5-3.1-7.1-4.7c0,0.7,0,1.3,0,2c2.7-2.5,5.9-4.2,9.5-5.1
					C129.4,130.8,128.7,128.1,126.9,128.5L126.9,128.5z"/>
			</g>
		</g>
		<g>
			<path class="st7" d="M132.4,144.5c-2.3-1.3-5.6,0.2-6.2,2.8c-0.2,1.1,0,2.1,0.2,3.2c1.1,4.9,3.2,9.5,6.2,13.5
				c1.7,2.3,4.5,4.5,7.1,3.4c2.7-1.2,2.8-4.8,2.5-7.6c-0.4-3.6-1.1-7.3-2.9-10.4c-1.9-3.1-5.2-5.6-8.8-5.5c-1.1,0-2.3,0.4-2.9,1.3
				c-0.4,0.6-0.5,1.4-0.5,2.1c0,4.2,1.3,8.5,3.6,12"/>
			<g>
				<path class="st7" d="M133.1,143.3c-2.3-1.1-4.9-0.7-6.8,1.1c-2.3,2.3-1.5,5.6-0.7,8.4c1,3.6,2.6,7.2,4.7,10.3
					c1.7,2.5,3.9,5.4,7.1,5.9c7.2,1.2,6.5-8.4,5.7-12.7c-1.1-6.1-4.6-13.1-11.6-13.8c-9.9-1-4.8,13.1-2,17.5c1,1.5,3.4,0.1,2.4-1.4
					c-1.7-2.5-2.8-5.3-3.3-8.3c-0.2-1.7-0.6-4.9,1.8-5c1.3,0,2.7,0.4,3.8,1c4.9,2.8,6.3,9.5,6.6,14.7c0.1,2.1-0.2,6.1-3.4,5.3
					c-2.8-0.7-4.7-4.1-6-6.5c-1.4-2.5-2.6-5.2-3.3-8c-0.4-1.4-1.1-3.3-0.3-4.7c0.7-1.3,2.5-1.9,3.9-1.3
					C133.3,146.4,134.7,144.1,133.1,143.3L133.1,143.3z"/>
			</g>
		</g>
		<g>
			<path d="M126.4,139.7c-4.4,1.1-8.5,4.3-11.1,8.9c-1.2,2.1-2.1,4.5-2.2,7c-0.1,2.6,0.7,5.3,2.5,6.7c2.4,2,5.8,0.8,7.8-1.7
				c2-2.6,2.9-6.1,3.4-9.6s0.7-7.2,0.7-10.8c0-0.4,0-0.8,0.1-1.1c0.2-0.3,0.5-0.4,0.7-0.5c4.7-1.8,10.1-2.3,14.2,1
				c1.7,1.4,3.3,3.9,2.7,6.4c-0.4,1.4-1.4,2.5-2.5,3.1c-2.7,1.4-6,0.4-8.4-1.7c-2.4-2.1-4.2-5.2-6-8.1"/>
			<g>
				<path class="st1" d="M126,138.4c-6,1.6-10.8,6.2-13.1,11.9c-1.9,4.7-2,13.6,4.6,14.4c6.6,0.8,9.4-7.1,10.3-12.2
					c0.3-1.8,0.6-3.7,0.7-5.5c0.1-1,0.1-2.1,0.2-3.2c0-0.8-0.3-3,0-3.6c0.7-1.1,3.4-1.3,4.5-1.5c1.9-0.2,3.8-0.2,5.6,0.5
					c2.1,0.8,4.4,2.6,4.8,4.9c0.5,3-2.6,4.6-5.1,4.1c-4.5-1-7.1-6.1-9.2-9.7c-0.9-1.5-3.3-0.1-2.4,1.4c3,5.1,8.1,13.3,15.3,10.8
					c2.8-1,4.6-3.6,4.3-6.6c-0.4-3.3-2.9-5.9-5.9-7.2c-2.9-1.3-6.2-1.3-9.3-0.7c-1.3,0.3-3.1,0.6-4.2,1.4c-1.3,0.9-1.2,2.1-1.2,3.5
					c0,4.4-0.3,8.9-1.4,13.2c-0.7,3-3.6,9.6-7.9,7.2c-2-1.2-2.4-4.1-2.2-6.2c0.2-2.4,1.1-4.6,2.4-6.6c2.3-3.7,5.7-6.5,9.9-7.6
					C128.5,140.6,127.7,137.9,126,138.4L126,138.4z"/>
			</g>
		</g>
		<g>
			<g>
				<path d="M65.9,115.6c-1-2.7,6.8-8.2,17.6-12.4c10.7-4.2,20.2-5.5,21.2-2.9c1,2.7-6.8,8.2-17.6,12.4
					C76.4,117,66.9,118.2,65.9,115.6z"/>
				<path d="M56.4,90.6c-1-2.7,6.8-8.2,17.6-12.4c10.7-4.2,20.2-5.5,21.2-2.9c1,2.7-6.8,8.2-17.6,12.4C66.9,92,57.4,93.3,56.4,90.6z
					"/>
				<g>
					<g>
						<path class="st0" d="M58.8,90.7c0.9,0,0.9-1.4,0-1.4S57.9,90.7,58.8,90.7L58.8,90.7z"/>
					</g>
				</g>
				<g>
					<path d="M56.6,91.1c0.6-0.2-0.3-1.1-0.7-0.7s-0.2,1.1,0,1.7c3.4,7.7,6.9,15.3,10.4,23c0.2,0.4,0.4,0.8,0.7,1.1
						c0.7,0.5,1.6,0.3,2.4,0c12.2-4.2,23.8-10.1,34.6-17.4c-1.3-8-3.9-15.8-7.5-23c-0.4-0.7-0.8-1.5-1.6-1.9c-1-0.5-2.2,0.1-3.2,0.7
						C80.5,81,69,86.6,57.2,91.3c-0.6,0.2-1.3,0.7-1.2,1.3c0.1,0.7,1.4,0,0.8-0.2L56.6,91.1z"/>
					<g>
						<path d="M57.1,91.6c0-0.1,0.1-0.1,0.2-0.2c0.2-0.3,0.3-0.6,0.1-0.8c-0.6-1.1-2.1-1.1-2.4,0.3c-0.2,1.1,0.7,2.5,1.1,3.4
							c0.7,1.6,1.5,3.3,2.2,4.9c1.6,3.5,3.2,7.1,4.8,10.7c0.8,1.8,1.6,3.6,2.4,5.4c0.4,0.9,0.8,1.8,1.9,2c1,0.3,2.1-0.2,3-0.6
							c1.9-0.7,3.7-1.4,5.5-2.1c3.2-1.3,6.3-2.7,9.4-4.1c6.6-3.2,12.9-6.9,19-11c0.3-0.2,0.4-0.5,0.3-0.8
							c-1.3-7.5-3.5-14.8-6.9-21.7c-0.9-1.9-1.9-4.2-4.4-3.8c-1.5,0.3-3,1.4-4.4,2.1c-1.8,1-3.6,2-5.4,2.9c-6.9,3.6-14,7-21.2,10.1
							c-1.9,0.8-3.8,1.4-5.6,2.3c-0.7,0.3-1.5,0.8-1.5,1.7c0,1.2,1.4,1.5,2.1,0.7c0.2-0.2,0.3-0.6,0.1-0.8c-0.2-0.3-0.2-0.8-0.2-1.2
							c-0.1-0.9-1.5-0.5-1.4,0.4c0.1,0.5,0,1.1,0.4,1.5c0-0.3,0.1-0.6,0.1-0.8c0.2,0,0.4,0,0.7,0c0.5-0.2,1-0.4,1.5-0.6
							c0.7-0.3,1.4-0.6,2-0.8c1-0.4,2-0.8,3-1.3c2.5-1.1,5-2.2,7.5-3.4c5.1-2.4,10.2-4.9,15.2-7.6c2-1.1,7.2-5.2,9.3-2.8
							c0.7,0.8,1.1,2.2,1.6,3.2c0.7,1.4,1.3,2.9,1.9,4.4c2,5.1,3.4,10.3,4.3,15.7c0.1-0.3,0.2-0.5,0.3-0.8
							c-8.9,6.1-18.4,11.2-28.5,15.1c-1.9,0.7-5.6,2.9-7.4,1.9c-1.3-0.7-1.7-2.4-2.3-3.8c-0.6-1.4-1.3-2.7-1.9-4.1
							c-2.4-5.4-4.7-10.9-7.4-16.2c0-0.3,0.1-0.6,0.1-0.8c0,0.1-0.1,0.1-0.2,0.2C55.6,91.3,56.6,92.3,57.1,91.6z"/>
					</g>
				</g>
			</g>
			
				<ellipse transform="matrix(0.9769 -0.2135 0.2135 0.9769 -19.7044 24.2669)" class="st8" cx="102.5" cy="103.4" rx="18" ry="6.5"/>
		</g>
		<g>
			<path class="st9" d="M94,82.8c3.6-4.7,7.4-9.6,8.3-15.4s-1.9-12.7-7.6-14.2c-5-1.3-10.1,1.9-15.2,1.4c-5.5-0.5-9.8-4.9-13.3-9.3
				s-7-9.1-12.3-10.8c-5-1.6-10.6,0.1-14.8,3.2s-7.4,7.4-10.4,11.7c5.3-7.4,16.9-9.1,24.1-3.5c5.5,4.3,8.1,11.7,14,15.4
				c2.3,1.4,5,2.1,7.7,2.1c3.3,0,6.4-1.2,9.7-1.8c3.2-0.5,6.9-0.3,9.3,2c2.2,2.1,2.7,5.6,2.5,8.7s-1,6.2-0.7,9.3L94,82.8z"/>
			<g>
				<path class="st9" d="M94.6,83.3c4.5-5.8,9.7-12.6,8.6-20.4c-1-6.7-6-11.4-12.9-10.6c-4.4,0.6-8.8,2.5-13.2,1
					c-4.3-1.4-7.5-5.1-10.2-8.5c-4.7-5.8-9.8-12.2-18-11.5c-9.5,0.7-15.7,8.6-20.7,15.8c-0.5,0.7,0.7,1.4,1.2,0.7
					c3.4-4.6,9.3-6.8,14.9-6.4C51,44,55,48.5,58.7,53.6c3.3,4.5,6.8,8.9,12.5,10.1c6.6,1.4,13.4-3.5,19.7-0.9
					c4.2,1.7,4.7,6.4,4.3,10.3c-0.2,2.1-0.6,4.2-0.7,6.3c0,0.7,0.2,1.4,0,1.9c-0.1,0.3-0.6,0.6-0.8,0.9C92.9,83,93.9,84,94.6,83.3
					c0.4-0.4,1.1-0.9,1.3-1.4c0.2-0.6,0-1.4,0-2c0-1.1,0.1-2.3,0.3-3.4c0.4-3.5,1-7.1-0.3-10.5c-2.8-7.1-10.9-5.4-16.7-4.1
					c-4.8,1.1-9.5,0.8-13.5-2.4c-2.8-2.2-4.7-5.3-6.8-8.1c-3.6-4.9-7.7-8.8-14-9.5C38.5,41.2,32,43.8,28.1,49
					c0.4,0.2,0.8,0.5,1.2,0.7c4.4-6.4,9.7-13.3,17.8-14.9c8.3-1.6,13.6,4.5,18.2,10.4c4,4.9,8.9,10.3,15.7,10.1
					c3.6-0.1,7-1.6,10.7-1.7c3.9-0.1,7,2,8.7,5.4c4.1,8.4-1.9,16.8-6.9,23.3C93,83,94,84,94.6,83.3z"/>
			</g>
		</g>
		<ellipse class="st9" cx="201.6" cy="176.1" rx="52.6" ry="52.6"/>
		<ellipse class="st10" cx="190.9" cy="181.2" rx="52.6" ry="52.6"/>
		
			<rect x="149" y="160.8" transform="matrix(0.8455 -0.534 0.534 0.8455 -57.4934 127.1136)" class="st4" width="83.8" height="4.3"/>
		
			<ellipse transform="matrix(0.9456 -0.3253 0.3253 0.9456 -53.5944 54.9735)" class="st3" cx="137.6" cy="187.8" rx="31" ry="10.8"/>
		<ellipse transform="matrix(0.866 -0.5 0.5 0.866 -35.7042 119.2674)" class="st11" cx="204.7" cy="126.3" rx="10.7" ry="2.9"/>
		<ellipse transform="matrix(0.866 -0.5 0.5 0.866 -37.7862 129.3082)" class="st11" cx="222.4" cy="135.2" rx="10.7" ry="2.9"/>
		<ellipse transform="matrix(0.866 -0.5 0.5 0.866 -42.8002 139.3888)" class="st11" cx="238.7" cy="149.6" rx="10.7" ry="2.9"/>
		<ellipse transform="matrix(0.866 -0.5 0.5 0.866 -49.7037 146.2218)" class="st11" cx="248" cy="165.9" rx="10.7" ry="2.9"/>
		
			<ellipse transform="matrix(0.9679 -0.2513 0.2513 0.9679 -38.955 68.6707)" class="st11" cx="249.4" cy="186.9" rx="10.7" ry="2.9"/>
		
			<ellipse transform="matrix(0.9967 -8.100870e-02 8.100870e-02 0.9967 -15.8895 20.2726)" class="st11" cx="241.9" cy="206" rx="8.3" ry="2.3"/>
		
			<ellipse transform="matrix(0.9679 -0.2513 0.2513 0.9679 -51.8552 58.8506)" class="st11" cx="204.5" cy="232.5" rx="3.3" ry="3.4"/>
		
			<ellipse transform="matrix(0.9967 -8.100870e-02 8.100870e-02 0.9967 -17.1902 19.0109)" class="st11" cx="225.7" cy="221.4" rx="8" ry="2.3"/>
		<ellipse transform="matrix(0.8455 -0.534 0.534 0.8455 -39.9191 115.7748)" class="st11" cx="180.1" cy="126.9" rx="8" ry="2.3"/>
		
			<ellipse transform="matrix(0.9679 -0.2513 0.2513 0.9679 -29.7072 45.0913)" class="st11" cx="161.7" cy="138.9" rx="3.3" ry="3.4"/>
		
			<ellipse transform="matrix(0.9679 -0.2513 0.2513 0.9679 -33.5648 41.8806)" class="st11" cx="147.2" cy="152.4" rx="3.3" ry="3.4"/>
		
			<ellipse transform="matrix(0.9679 -0.2513 0.2513 0.9679 -37.8247 41.1221)" class="st11" cx="142.1" cy="168.7" rx="3.3" ry="3.4"/>
		
			<ellipse transform="matrix(0.9679 -0.2513 0.2513 0.9679 -48.1904 43.7483)" class="st11" cx="147.2" cy="210.6" rx="3.3" ry="3.4"/>
		
			<ellipse transform="matrix(0.9679 -0.2513 0.2513 0.9679 -51.1787 47.348)" class="st11" cx="159.8" cy="224.1" rx="3.3" ry="3.4"/>
		
			<ellipse transform="matrix(0.9679 -0.2513 0.2513 0.9679 -52.6608 52.5431)" class="st11" cx="179.4" cy="232.5" rx="3.3" ry="3.4"/>
		<g>
			<path class="st12" d="M214.1,80.5c-0.6-3.2-3.4-5.2-6.3-6.4c-3.9-1.6-8.4-2.4-12.5-0.8c1.1,0.2,2.2,0.4,3.3,0.7
				c-1.8,0.4-3.5,1.3-4.9,2.5c0.9,0.5,1.8,0.8,2.8,1c-1.7,0.5-3.3,1.2-4.8,2.1c-0.2,0.1-0.4,0.2-0.5,0.4c-0.5,0.7,0.6,1.4,1.4,1.4
				c-2,0.7-3.8,1.8-5.4,3.2c0.8,0.5,1.7,0.7,2.7,0.8c-1.8,1.3-3.5,2.5-5.3,3.7c1,0,1.9-0.1,2.9-0.1c-1.2,0.6-1.6,2.2-1.3,3.4
				c0.3,1.2,1.3,2.1,2.1,2.9c3.1,2.8,6.7,5.2,10.9,6c0.5,0.1,1,0.1,1.5,0c0.7-0.3,1.1-1.2,1.8-1.6c0.7-0.5,1.8-0.1,1.5,0.6
				c0.9-1.2,1.4-2.7,1.4-4.1c0.5,0.3,1,0.5,1.4,0.8c0.1-1.4,0.3-2.7,0.5-4.1c0.6,0.1,1.1,0.2,1.6,0.4c0-1.4,0-2.8,0.1-4.2
				c0.6,0,1.2,0,1.8,0.1c-0.2-1.6-0.3-3.3-0.5-4.9c1.1,0,2.1,0.2,3,0.7c-0.1-1-0.3-2-0.4-2.9c0.5,0.3,1,0.6,1.5,0.8
				c0-1.8-0.5-3.6-1.5-5L214.1,80.5z"/>
			<g>
				<path class="st12" d="M213.6,80c-1.7-7.2-12.4-9.3-18.4-7.2c-0.6,0.2-0.7,1.1,0,1.3c1,0.2,2.1,0.4,3.1,0.6c0-0.4,0-1.1,0-1.6
					c-2.2,0.6-3.9,1.5-5.7,2.9c-0.4,0.3-0.3,1,0.2,1.2c1.1,0.6,2.1,0.9,3.2,1.2c0-0.5,0-1,0-1.4c-1.5,0.5-4.7,1.2-5.5,2.8
					c-0.6,1.2,0.8,2,1.8,2.3c0-0.4,0-1.2,0-1.2s-3.9,2-5.6,3.4c-0.3,0.3-0.2,0.9,0.1,1.1c0.9,0.5,1.8,0.7,2.8,0.9
					c0-0.4-0.1-0.8-0.2-1.3c-1.8,1.3-3.5,2.5-5.3,3.7c-0.5,0.4-0.4,1.4,0.4,1.3c1,0,1.9-0.1,2.9-0.1c-0.1-0.4-0.2-0.9-0.4-1.3
					c-4.3,3,0.5,7.5,3.2,9.5c2.2,1.7,4.7,3.1,7.3,3.8c0.9,0.3,2,0.6,2.9,0.4c0.5-0.1,0.7-0.2,1.1-0.5c0,0,1.7-1.6,1.7-1.2
					c0,0.7,0.9,0.9,1.3,0.4c0.9-1.4,1.4-2.8,1.4-4.5c-0.4,0.2-0.7,0.4-1.1,0.6c0.5,0.3,1,0.5,1.4,0.8c0.5,0.3,1-0.1,1.1-0.6
					c0.1-1.4,0.3-2.7,0.5-4.1c-0.3,0.2-0.6,0.5-0.9,0.7c0.6,0.1,1.1,0.2,1.6,0.4c0.5,0.1,0.9-0.2,0.9-0.7c0-1.4,0-2.8,0.1-4.2
					c-0.2,0.2-0.5,0.5-0.7,0.7c0.6,0,1.2,0,1.8,0.1c0.4,0,0.7-0.3,0.7-0.7c-0.2-1.6-0.3-3.3-0.5-4.9c-0.2,0.2-0.5,0.5-0.7,0.7
					c0.9,0,1.8,0.2,2.7,0.6c0.6,0.3,1.1-0.2,1-0.8c-0.1-1-0.3-2-0.4-2.9c-0.3,0.3-0.7,0.5-1,0.8c0.5,0.3,1,0.6,1.5,0.8
					c0.5,0.2,1.1,0,1.1-0.6c0-2-0.6-3.7-1.6-5.4c-0.5-0.7-1.6-0.1-1.2,0.7c0.4,0.9,0.9,1.9,1.3,2.8c0.4,0.8,1.6,0.1,1.2-0.7
					c-0.4-0.9-0.9-1.9-1.3-2.8c-0.4,0.2-0.8,0.5-1.2,0.7c0.9,1.5,1.4,2.9,1.4,4.7c0.4-0.2,0.7-0.4,1.1-0.6c-0.5-0.3-1-0.6-1.5-0.8
					c-0.6-0.3-1.1,0.2-1,0.8c0.1,1,0.3,2,0.4,2.9c0.3-0.3,0.7-0.5,1-0.8c-1.1-0.5-2.1-0.7-3.4-0.8c-0.4,0-0.7,0.3-0.7,0.7
					c0.2,1.6,0.3,3.3,0.5,4.9c0.2-0.2,0.5-0.5,0.7-0.7c-0.6,0-1.2,0-1.8-0.1c-0.4,0-0.7,0.3-0.7,0.7c0,1.4,0,2.8-0.1,4.2
					c0.3-0.2,0.6-0.5,0.9-0.7c-0.6-0.1-1.1-0.2-1.6-0.4c-0.5-0.1-0.8,0.2-0.9,0.7c-0.1,1.4-0.3,2.7-0.5,4.1c0.4-0.2,0.7-0.4,1.1-0.6
					c-0.5-0.3-1-0.5-1.4-0.8c-0.5-0.3-1,0-1.1,0.6c-0.1,1.4-0.5,2.6-1.3,3.8c0.4,0.1,0.9,0.2,1.3,0.4c0-0.8-0.5-1.4-1.4-1.5
					c-0.5,0-0.9,0.1-1.3,0.4c-0.3,0.2-0.5,0.5-0.7,0.7c-0.9,0.6-2.3,0.7-3.4,0.5c-2.7-0.6-14.9-7.5-10.2-10.7
					c0.5-0.4,0.4-1.4-0.4-1.3c-1,0-1.9,0.1-2.9,0.1c0.1,0.4,0.2,0.9,0.4,1.3c1.8-1.3,3.5-2.5,5.3-3.7c0.4-0.3,0.5-1.2-0.2-1.3
					c-0.9-0.1-1.6-0.3-2.5-0.7c0,0.4,0.1,0.7,0.1,1.1c1.6-1.3,3.2-2.3,5.1-3c0.6-0.2,0.7-1.2,0-1.4c-1.5-0.3,1.4-1.7,1.3-1.6
					c0.8-0.4,1.7-0.7,2.7-1c0.6-0.2,0.7-1.2,0-1.4c-1-0.2-1.7-0.5-2.7-0.9c0,0.4,0.1,0.7,0.1,1.1c1.4-1.1,2.9-1.9,4.7-2.3
					c0.7-0.2,0.7-1.2,0-1.4c-1.1-0.2-3.2-0.7-3.2-0.7s0,1,0,1.5c5.3-1.9,15.3-0.2,16.8,6.3C212.6,81.2,213.8,80.8,213.6,80z"/>
			</g>
		</g>
		<g>
			<path class="st12" d="M247.7,134.9c0.7-3.2-1.3-6.1-3.5-8.3c-3-2.9-6.9-5.3-11.4-5.3c0.9,0.6,1.9,1.2,2.8,1.8
				c-1.8-0.3-3.7-0.1-5.5,0.5c0.6,0.8,1.4,1.4,2.3,2c-1.7-0.1-3.5-0.1-5.3,0.2c-0.2,0-0.5,0.1-0.7,0.2c-0.7,0.5,0.1,1.4,0.8,1.8
				c-2.1,0-4.2,0.3-6.2,1c0.6,0.7,1.4,1.3,2.2,1.8c-2.1,0.5-4.2,1-6.3,1.5c0.9,0.3,1.8,0.7,2.7,0.9c-1.3,0.1-2.3,1.5-2.4,2.7
				c-0.1,1.3,0.4,2.4,0.9,3.5c1.9,3.8,4.4,7.3,8,9.5c0.4,0.3,0.9,0.5,1.4,0.5c0.8,0,1.4-0.7,2.2-0.9c0.7-0.2,1.8,0.6,1.2,1.1
				c1.3-0.8,2.2-2,2.8-3.4c0.4,0.4,0.7,0.8,1.1,1.3c0.7-1.2,1.3-2.5,2-3.7c0.5,0.3,0.9,0.7,1.4,1c0.5-1.3,1.1-2.6,1.6-3.9
				c0.6,0.2,1.1,0.5,1.7,0.7c0.4-1.6,0.9-3.2,1.3-4.7c1,0.4,1.9,1,2.5,1.7c0.2-1,0.5-1.9,0.7-2.9c0.4,0.4,0.7,0.9,1.1,1.3
				c0.7-1.7,0.8-3.6,0.4-5.3L247.7,134.9z"/>
			<g>
				<path class="st12" d="M249.1,135.1c1.1-8.1-8.7-14.5-15.9-14.7c-0.7,0-1,1-0.4,1.3c1,0.6,1.9,1.2,2.9,1.8
					c0.1-0.4,0.2-0.9,0.4-1.3c-2-0.2-3.9,0-5.8,0.6c-0.5,0.1-0.7,0.8-0.3,1.2c0.8,0.9,1.5,1.5,2.5,2.1c0.1-0.4,0.2-0.9,0.4-1.3
					c-1.5-0.1-5.3-0.6-6.6,0.7c-1,1.1,0.1,2.3,1,2.9c0.1-0.4,0.2-0.9,0.4-1.3c-2.2,0-4.4,0.4-6.5,1c-0.5,0.2-0.7,0.8-0.3,1.2
					c0.7,0.8,1.4,1.4,2.4,1.9c0-0.4,0.1-0.9,0.2-1.3c-2.1,0.5-4.3,1-6.5,1.6c-0.7,0.2-0.6,1.1,0,1.4c0.9,0.3,1.9,0.7,2.8,1
					c0-0.5,0-0.9,0-1.4c-5.4,1.4-1.9,7.8-0.1,10.7c1.4,2.2,3.1,4.2,5.1,5.7c0.9,0.7,1.9,1.5,3,1.5c0.5,0,3-0.6,3-0.8
					c-0.2,0.6,0.3,1.4,1,1c1.4-1,2.4-2.1,3.1-3.7c-0.4,0-0.8,0.1-1.1,0.1c0.4,0.4,0.7,0.9,1.1,1.3c0.3,0.3,0.9,0.2,1.1-0.1
					c0.7-1.2,1.3-2.5,2-3.8c-0.3,0.1-0.7,0.2-1,0.2c0.5,0.3,1,0.7,1.4,1s0.9,0,1-0.4c0.5-1.3,1.1-2.6,1.6-3.9
					c-0.3,0.1-0.7,0.3-1,0.4c0.6,0.2,1.1,0.5,1.7,0.8c0.4,0.2,0.9,0,1-0.4c0.4-1.6,0.9-3.2,1.3-4.8c-0.3,0.1-0.7,0.3-1,0.4
					c1,0.4,1.7,0.9,2.4,1.7c0.4,0.4,1.1,0.2,1.2-0.3c0.2-1,0.5-1.9,0.7-2.9c-0.4,0.1-0.8,0.2-1.2,0.3c0.4,0.4,0.8,0.9,1.1,1.3
					s1,0.1,1.2-0.3c0.7-1.9,0.9-3.8,0.4-5.7c-0.1-0.8-1.5-0.6-1.4,0.2c0,1,0.1,2.1,0.2,3.1C247.6,136,249.1,136,249.1,135.1
					c-0.1-1-0.2-2.1-0.3-3.1c-0.5,0-1,0.1-1.4,0.2c0.3,1.8,0.1,3.3-0.4,5c0.4-0.1,0.8-0.2,1.2-0.3c-0.4-0.4-0.8-0.9-1.1-1.3
					c-0.3-0.4-1.1-0.2-1.2,0.3c-0.2,1-0.5,1.9-0.7,2.9c0.4-0.1,0.8-0.2,1.2-0.3c-0.8-0.9-1.6-1.4-2.7-1.9c-0.4-0.2-0.9,0-1,0.4
					c-0.4,1.6-0.9,3.2-1.3,4.8c0.3-0.1,0.7-0.3,1-0.4c-0.6-0.2-1.1-0.5-1.7-0.8c-0.5-0.2-0.9,0-1,0.4c-0.5,1.3-1.1,2.6-1.6,3.9
					c0.3-0.1,0.7-0.3,1-0.4c-0.5-0.3-1-0.7-1.4-1c-0.3-0.2-0.8,0-1,0.2c-0.7,1.2-1.3,2.5-2,3.8c0.4,0,0.8-0.1,1.1-0.1
					c-0.4-0.4-0.7-0.9-1.1-1.3c-0.3-0.3-1-0.2-1.1,0.1c-0.6,1.3-1.4,2.3-2.6,3.2c0.3,0.3,0.7,0.7,1,1c0.3-0.8,0.3-1.5-0.5-2
					c-0.4-0.3-1-0.3-1.5-0.2c-1.3,0.2-1.8,1.1-3.5,0.2c-2.7-1.4-12.4-13.1-6.5-14.6c0.7-0.2,0.6-1.1,0-1.4c-0.9-0.3-1.9-0.7-2.8-1
					c0,0.5,0,0.9,0,1.4c2.1-0.5,4.3-1,6.5-1.6c0.6-0.1,0.7-1,0.2-1.3c-0.8-0.5-1.5-1-2.1-1.7c-0.1,0.4-0.2,0.8-0.3,1.2
					c2-0.7,4-1,6.1-1c0.8,0,0.9-1,0.4-1.3c-1.5-1.1,1.8-1,2.2-1c0.9,0,1.8,0,2.7,0c0.8,0,0.9-1,0.4-1.3c-0.9-0.6-1.5-1.1-2.2-1.9
					c-0.1,0.4-0.2,0.8-0.3,1.2c1.8-0.6,3.6-0.7,5.4-0.5c0.8,0.1,0.9-1,0.4-1.3c-1-0.6-1.9-1.2-2.9-1.8c-0.1,0.4-0.2,0.9-0.4,1.3
					c6.1,0.1,15.5,5.9,14.5,12.9C247.6,135.6,249,136,249.1,135.1z"/>
			</g>
		</g>
	</g>
	<g>
		<g>
			<path d="M389.9,124c1.3-4.1-0.8-8.6-4.2-11.3c-3.3-2.7-7.7-3.7-11.9-4.4c-3.4-0.6-6.8-0.9-10.2-1.1c-2.2-0.1-4.6,0-6.4,1.3
				c-3.1,2.4-2.2,7.5,0,10.7c3.1,4.3,8,7.2,13.2,8.5s10.7,1.1,16,0.6c1.8-0.2,3.8-0.6,4.6-2.2c0.3-0.7,0.4-1.5,0.4-2.3
				c0.1-3.2-0.5-7.2-3.5-7.9"/>
			<g>
				<path class="st1" d="M391.3,124.4c2.3-8.2-4.8-14.3-11.9-16.4c-4.4-1.3-9.2-1.8-13.9-2.1c-3.6-0.2-8-0.5-10.4,2.8
					c-4.4,6,1.7,13.6,6.6,16.8c7.3,4.9,16.9,5.3,25.3,4.2c4.3-0.6,6-2.9,5.8-7.1c-0.1-3.3-1.1-7-4.6-8.1c-1.8-0.6-2.5,2.2-0.8,2.8
					c2.9,1,3.7,8,0.9,9.2c-1.6,0.7-3.9,0.6-5.6,0.8c-2.1,0.1-4.2,0.1-6.3,0c-7-0.4-15.6-3.2-19-10c-1.6-3.2-1.6-7.5,2.6-8.4
					c4.1-0.8,9.2,0.2,13.2,0.9c6.8,1.1,17.6,5,15,14C388.1,125.4,390.8,126.2,391.3,124.4L391.3,124.4z"/>
			</g>
		</g>
		<g>
			<g>
				<path class="st13" d="M304.2,134.6c-2-10.2-1.9-20.8,0.8-30.9c2.1-8.1,5.6-19,15.2-20.3c10-1.4,17.7,8.3,22.8,15.5
					c6.3,8.7,12,18,17,27.6c1.3,2.6,2.7,5.3,3.9,7.9c1.1,2.3,1.9,5.2,4.1,6.6c2.3,1.5,5.8,1,6.6-2c0.6-2.1-0.9-4.9-3.2-5.3
					c-1.7-0.3-3.1,0.2-4.1,1.6c0,0-0.1,0.1-0.1,0.2c-2.6,3.8,3.6,7.4,6.2,3.6c0,0,0.1-0.1,0.1-0.2c-1.3,0.5-2.7,1.1-4.1,1.6
					c-0.6-0.6-1.2-1.1-1.8-1.7c0-0.6,0-1.3,0-1.9c0,0.1,0,0.1,0,0.2c0.8-0.8,1.7-1.7,2.5-2.5c-0.1,0-0.2,0-0.3,0.1
					c0.6,0,1.3,0,1.9,0c0.7,0.1,0.2,0.5,0.1-0.1c-0.1-0.7-0.6-1.4-0.9-2c-0.5-1.2-1.1-2.4-1.7-3.6c-1.1-2.4-2.3-4.8-3.5-7.1
					c-2.5-4.8-5.2-9.5-8-14c-5.4-8.7-11.1-17.9-18.9-24.7c-7.3-6.3-17-9.3-26.2-4.8c-8.5,4.2-12.2,14.6-14.5,23
					c-3.1,11.5-3.2,23.4-0.9,35.1C298.2,141,305.1,139.1,304.2,134.6L304.2,134.6z"/>
			</g>
		</g>
		<g>
			<path class="st14" d="M368,106.9c1.1-1.5,2.3-3.1,4-3.8c1.7-0.7,4.2,0,4.6,1.8c1.4-2.1,3.9-3.2,6.4-3c2.4,0.2,4.7,1.9,5.6,4.2
				c1.7-1.2,4.3-0.7,5.5,1s0.7,4.3-1,5.6c2.3,1.1,3.8,3.8,3.6,6.4c-0.2,2.6-2.1,4.9-4.5,5.7c0.4,1.9,0.2,4-0.5,5.7
				c-0.6,1.5-1.9,3-3.5,3.1c-1.8,0.1-3.2-1.4-4.3-2.8c-2,3.7-7.8,4.3-10.6,1.2c-0.3-0.4-0.7-0.9-1.1-1.1c-0.7-0.3-1.5-0.2-2.2-0.1
				c-2.7,0.3-5.4-0.3-7.7-1.8c-1.1-0.7-2.2-1.7-2.5-3s0.7-2.9,2-2.9c-1.5-0.6-2.6-2.1-2.7-3.8c0-1.6,1-3.3,2.4-4
				c-1.4-0.6-2.1-2.4-1.4-3.8c0.7-1.3,2.6-1.9,3.9-1.1c-0.5-1.4-0.3-3.2,0.9-4.1c1.2-0.9,3.4,0.2,3.1,1.7L368,106.9z"/>
			<g>
				<path class="st14" d="M368.5,107.2c0.8-1.1,1.6-2.1,2.7-2.9c1.4-1,3.9-1.4,4.7,0.7c0.2,0.6,0.9,0.7,1.3,0.2
					c3-4,8.6-3.2,10.7,1.1c0.2,0.3,0.7,0.4,1,0.2c3.7-2.1,6.9,2.7,3.7,5.5c-0.3,0.3-0.2,0.9,0.1,1.1c4.5,2.5,4.2,8.9-0.8,10.7
					c-0.4,0.1-0.6,0.5-0.5,0.9c0.4,2.2,0.2,4.9-1.3,6.7c-2.1,2.4-4.3,0.4-5.8-1.4c-0.3-0.4-0.9-0.2-1.1,0.1c-1.1,1.9-3.2,3-5.5,2.9
					s-3.2-1.4-4.8-2.7c-1.4-1.1-3.3-0.4-5-0.5c-1.6-0.1-3.2-0.5-4.6-1.3c-0.7-0.3-1.4-0.7-1.9-1.3c-0.7-0.9-1.8-3.3,0.3-3.6
					c0.6,0,1.1-1,0.4-1.3c-2.8-1.3-3.1-4.9-0.3-6.5c0.5-0.3,0.5-1,0-1.2c-2.4-1.3-0.9-4.9,1.7-3.7c0.5,0.2,1.2-0.1,1.1-0.8
					c-0.2-0.4-0.2-0.9-0.1-1.4c-0.2-1.4,0.7-1.7,2.7-0.8c0,0.9,1.4,0.9,1.4,0c0-0.4,0-0.8,0.1-1.1c0-0.9-1.4-0.9-1.4,0
					c0,0.4,0,0.8-0.1,1.1c0.5,0,1,0,1.4,0c0-1.7-1.6-3-3.3-2.6c-2.3,0.5-2.6,3.3-2.1,5.2c0.3-0.3,0.7-0.5,1.1-0.8
					c-4.3-2-7.3,3.9-3.2,6.2c0-0.4,0-0.8,0-1.2c-3.6,2.1-3.6,7.2,0.3,9c0.1-0.4,0.2-0.9,0.4-1.3c-2.4,0.3-3.4,2.8-2.3,4.8
					c1.6,3,6.1,4.3,9.3,4.3c1.5,0,2.5-0.2,3.9,0.8c0.5,0.4,0.9,0.9,1.4,1.2c1.1,0.7,2.4,1.1,3.8,1.1c2.7,0.1,5.3-1.2,6.7-3.6
					c-0.4,0-0.8,0.1-1.1,0.1c1.8,2.1,4.3,4.2,7,2.2c2.8-2,3.2-6,2.6-9c-0.1,0.3-0.3,0.6-0.5,0.9c6-2.2,6.7-10.1,1.1-13.3
					c0,0.4,0.1,0.8,0.1,1.1c4.5-3.9-0.2-10.7-5.4-7.7c0.3,0.1,0.7,0.2,1,0.2c-2.6-5.5-9.6-6-13.2-1.1c0.4,0,0.9,0.1,1.3,0.2
					c-0.7-1.8-2.4-2.7-4.3-2.6c-2.6,0.2-4.3,2.5-5.6,4.4C366.8,107.3,368,108,368.5,107.2z"/>
			</g>
		</g>
		<g>
			<path class="st2" d="M354.4,116.4c-2.1,1.2-3.1,3.8-2.8,6s1.4,4.3,2.7,6.1c1.8,2.5,3.9,4.9,6.7,6.3c6.3,2.9,15.1-0.8,17.8-7.2
				s-1-14.1-7.5-16.4s-14.9,0.8-18.8,6.6"/>
		</g>
		<ellipse transform="matrix(0.772 -0.6356 0.6356 0.772 -7.4307 278.9926)" class="st3" cx="385.2" cy="149.9" rx="31.8" ry="11"/>
		<g>
			<path class="st5" d="M295.6,163.4c-3,0.3-5.6,2.1-7.5,4.3c-1.8,2.2-2.8,5-3.4,7.7c-1.5,6.9-0.7,14.1,2.3,20.6l-2.6-9.1
				c-9.7,6.5-14,18.6-11.9,29.6c2.1,10.9,9.8,20.4,19.6,26.8c20.9,13.5,51.1,12.4,71.5-1.7c20.4-14.1,30.2-39.7,25.1-62.8
				c-1.6-7.2-4.4-14-7.2-20.8c-6.4-15.7-12.3-31.5-18-47.5l0.7,1.5c-2.7-6.7-8.9-11.9-16-14.6c-7.2-2.7-15.2-2.9-22.8-1.5
				c-9.4,1.8-18.5,6.5-23.4,14.1c-4.6,7.2-5,16.1-3.1,24.2c2,8.1,6.1,15.6,10.3,23l-5.7-13.5c-3.5-0.4-6.9,2-8.3,5s-1.1,6.4-0.5,9.6
				c1.6,8.2,5.6,15.9,9.8,23.3c-0.2-0.3-0.5-0.7-0.7-1"/>
			<g>
				<path class="st5" d="M295.4,162.8c-14.8,2.3-13.5,23.6-8.9,33.6c0.3,0.8,1.5,0.2,1.3-0.6c-0.9-3.1-1.8-6.1-2.6-9.1
					c-0.1-0.4-0.7-0.7-1.1-0.4c-6.9,4.8-11.4,12.3-12.5,20.7c-1.1,8.8,1.8,17.6,7.1,24.7c11,14.8,29.7,21.9,47.7,21.9
					c18.2,0,36.3-7.1,48.6-20.8c11.7-13,17.7-31,15.6-48.5c-1.5-12.3-7.1-23.7-11.6-35.2c-5.1-12.8-9.9-25.7-14.4-38.7
					c-0.4,0.2-0.9,0.4-1.3,0.6c0.2,0.5,0.5,1,0.7,1.5c0.4,0.9,1.6,0.1,1.2-0.7c-6.8-15.9-26.6-19.6-41.8-15.9
					c-7.6,1.8-14.9,5.4-19.9,11.3c-5.2,6.2-6.9,14.3-6,22.2c1.1,10.3,6.3,19.5,11.3,28.4c0.4,0.7,1.6,0.2,1.3-0.6
					c-1.9-4.5-3.8-9-5.7-13.5c-0.1-0.3-0.3-0.5-0.7-0.5c-3.1-0.2-6,1.2-7.8,3.6c-2.3,3.1-2.4,7.1-1.8,10.7c1.4,8.8,5.8,17,10.1,24.6
					c0.4-0.2,0.8-0.5,1.2-0.7c-0.2-0.3-0.5-0.7-0.7-1c-0.5-0.8-1.8,0-1.2,0.7c0.2,0.3,0.5,0.7,0.7,1c0.5,0.8,1.7,0.1,1.2-0.7
					c-3.5-6.2-6.9-12.6-8.9-19.4c-1-3.5-1.9-7.4-1.1-11c0.9-3.8,4.2-6.7,8.2-6.4c-0.2-0.2-0.5-0.3-0.7-0.5c1.9,4.5,3.8,9,5.7,13.5
					c0.4-0.2,0.9-0.4,1.3-0.6c-7.6-13.6-16.9-31.5-7.2-46.5c8.4-12.9,27.7-17.1,41.7-13.5c8.3,2.1,15.9,7.4,19.2,15.4
					c0.4-0.2,0.8-0.5,1.2-0.7c-0.2-0.5-0.5-1-0.7-1.5c-0.3-0.7-1.6-0.2-1.3,0.6c3.7,10.7,7.6,21.2,11.7,31.7
					c3.9,10,8.5,19.9,11.7,30.2c5.3,16.9,3.3,35-6,50.2c-9.2,15.1-24.6,25.1-42,28.2c-17.5,3.2-36.9-0.4-50.8-12
					c-7.6-6.3-13.8-15.3-14.7-25.5c-0.9-10.1,3.6-20.2,11.9-25.9c-0.3-0.1-0.7-0.3-1.1-0.4c0.9,3.1,1.8,6.1,2.6,9.1
					c0.4-0.2,0.9-0.4,1.3-0.6c-4.2-9.3-5.6-29.4,8.1-31.5C296.7,163.9,296.3,162.6,295.4,162.8L295.4,162.8z"/>
			</g>
		</g>
		<g>
			<path class="st14" d="M286.8,130.8c1.1-1.5,2.3-3.1,4-3.8c1.7-0.7,4.2,0,4.6,1.8c1.4-2.1,3.9-3.2,6.4-3c2.4,0.2,4.7,1.9,5.6,4.2
				c1.7-1.2,4.3-0.7,5.5,1s0.7,4.3-1,5.6c2.3,1.1,3.8,3.8,3.6,6.4c-0.2,2.6-2.1,4.9-4.5,5.7c0.4,1.9,0.2,4-0.5,5.7
				c-0.6,1.5-1.9,3-3.5,3.1c-1.8,0.1-3.2-1.4-4.3-2.8c-2,3.7-7.8,4.3-10.6,1.2c-0.3-0.4-0.7-0.9-1.1-1.1c-0.7-0.3-1.5-0.2-2.2-0.1
				c-2.7,0.3-5.4-0.3-7.7-1.8c-1.1-0.7-2.2-1.7-2.5-3s0.7-2.9,2-2.9c-1.5-0.6-2.6-2.1-2.7-3.8c0-1.6,1-3.3,2.4-4
				c-1.4-0.6-2.1-2.4-1.4-3.8s2.6-1.9,3.9-1.1c-0.5-1.4-0.3-3.2,0.9-4.1c1.2-0.8,3.4,0.2,3.1,1.7L286.8,130.8z"/>
			<g>
				<path class="st14" d="M287.3,131.1c0.8-1.1,1.6-2.1,2.7-2.9c1.4-1,3.9-1.4,4.7,0.7c0.2,0.6,0.9,0.7,1.3,0.2
					c3-4,8.6-3.2,10.7,1.1c0.2,0.3,0.7,0.4,1,0.2c3.7-2.1,6.9,2.7,3.7,5.5c-0.3,0.3-0.2,0.9,0.1,1.1c4.5,2.5,4.2,8.9-0.8,10.7
					c-0.4,0.1-0.6,0.5-0.5,0.9c0.4,2.2,0.2,4.9-1.3,6.7c-2.1,2.4-4.3,0.4-5.8-1.4c-0.3-0.4-0.9-0.2-1.1,0.1c-1.1,1.9-3.2,3-5.5,2.9
					s-3.2-1.4-4.8-2.7c-1.4-1.1-3.3-0.4-5-0.5c-1.6-0.1-3.2-0.5-4.6-1.3c-0.7-0.3-1.4-0.7-1.9-1.3c-0.7-0.9-1.8-3.3,0.3-3.6
					c0.6,0,1.1-1,0.4-1.3c-2.8-1.3-3.1-4.9-0.3-6.5c0.5-0.3,0.5-1,0-1.2c-2.4-1.3-0.9-4.9,1.7-3.7c0.5,0.2,1.2-0.1,1.1-0.8
					c-0.2-0.4-0.2-0.9-0.1-1.4c-0.2-1.4,0.7-1.7,2.7-0.8c0,0.9,1.4,0.9,1.4,0c0-0.4,0-0.8,0.1-1.1c0-0.9-1.4-0.9-1.4,0
					c0,0.4,0,0.8-0.1,1.1c0.5,0,1,0,1.4,0c0-1.7-1.6-3-3.3-2.6c-2.3,0.5-2.6,3.3-2.1,5.2c0.3-0.3,0.7-0.5,1.1-0.8
					c-4.3-2-7.3,3.9-3.2,6.2c0-0.4,0-0.8,0-1.2c-3.6,2.1-3.6,7.2,0.3,9c0.1-0.4,0.2-0.9,0.4-1.3c-2.4,0.3-3.4,2.8-2.3,4.8
					c1.6,3,6.1,4.3,9.3,4.3c1.5,0,2.5-0.2,3.9,0.8c0.5,0.4,0.9,0.9,1.4,1.2c1.1,0.7,2.4,1.1,3.8,1.1c2.7,0.1,5.3-1.2,6.7-3.6
					c-0.4,0-0.8,0.1-1.1,0.1c1.8,2.1,4.3,4.2,7,2.2c2.8-2,3.2-6,2.6-9c-0.1,0.3-0.3,0.6-0.5,0.9c6-2.2,6.7-10.1,1.1-13.3
					c0,0.4,0.1,0.8,0.1,1.1c4.5-3.9-0.2-10.7-5.4-7.7c0.3,0.1,0.7,0.2,1,0.2c-2.6-5.5-9.6-6-13.2-1.1c0.4,0,0.9,0.1,1.3,0.2
					c-0.7-1.8-2.4-2.7-4.3-2.6c-2.6,0.2-4.3,2.5-5.6,4.4C285.6,131.2,286.8,131.9,287.3,131.1z"/>
			</g>
		</g>
		<g>
			<path d="M307.9,128.2c-3.4-2.6-8.5-2.1-12,0.2c-3.6,2.3-6.1,6-8.1,9.7c-1.7,3-3.1,6.1-4.4,9.3c-0.8,2.1-1.6,4.3-0.9,6.4
				c1.2,3.8,6.4,4.6,10.1,3.5c5.2-1.5,9.4-5.2,12.4-9.7c2.9-4.5,4.6-9.6,5.8-14.9c0.4-1.7,0.7-3.8-0.6-5.1c-0.6-0.6-1.3-0.9-2.1-1.1
				c-3-1.1-6.9-2-8.6,0.7"/>
			<g>
				<path class="st1" d="M308.2,127.6c-6.6-4.6-14.3,0-18.3,5.7c-2.6,3.6-4.6,7.7-6.4,11.8c-1.4,3.2-3.2,7.2-1.1,10.4
					c3.9,5.7,12.6,2.5,16.9-0.8c6.8-5.2,10.3-13.6,12.1-21.7c0.9-3.9-0.1-6.2-4-7.4c-3-1-6.5-1.4-8.6,1.3c-0.6,0.7,0.7,1.4,1.2,0.7
					c1.3-1.7,3.6-1.5,5.5-1.1c2.3,0.5,4.8,1.3,4.8,4.3c0,2-0.8,4.1-1.4,5.9c-0.6,2.1-1.3,4.2-2.2,6.2c-3,6.5-9,13.9-16.9,14.2
					c-4.6,0.2-8-2.6-6.6-7.5c1.1-4,3.2-7.8,5.2-11.4c3.5-6.4,11.1-14.9,19-9.4C308.2,129.4,309,128.1,308.2,127.6L308.2,127.6z"/>
			</g>
		</g>
		<g>
			<path class="st2" d="M320,127.8c-2.1,1.2-3.1,3.8-2.8,6s1.4,4.3,2.7,6.1c1.8,2.5,3.9,4.9,6.7,6.3c6.3,2.9,15.1-0.8,17.8-7.2
				s-1-14.1-7.5-16.4s-14.9,0.8-18.8,6.6"/>
		</g>
		<g>
			<path class="st6" d="M317.7,130.4c-0.7,0.4-1,1.2-1,2c0.1,0.8,0.5,1.4,0.9,2c0.6,0.8,1.3,1.6,2.2,2.1c2.1,1,5-0.3,5.9-2.4
				c0.9-2.1-0.3-4.7-2.5-5.4c-2.1-0.8-5,0.3-6.3,2.2"/>
			<g>
				<path class="st6" d="M317,129.2c-3.1,2.3-1.2,6.3,1.5,8.1c2.6,1.8,6.4,0.8,8.1-1.8c1.8-2.7,0.7-6.4-2.1-7.9
					c-3.1-1.6-6.7,0-8.6,2.5c-1.1,1.5,1.4,2.9,2.5,1.4c0.9-1.2,2.4-1.9,3.9-1.7c1.7,0.2,2.9,2,2.2,3.6c-0.5,1.2-2.1,2.1-3.4,1.9
					c-1-0.1-3.9-2.8-2.6-3.7C319.9,130.5,318.5,128,317,129.2L317,129.2z"/>
			</g>
		</g>
		<g>
			<path d="M362.8,126.7c-3.9,0.9-7.5,2.9-10.4,5.6c2.1,2.3,4.6,4.1,7.5,5.3c0.5,0.2,1.1,0.4,1.6,0.3c0.9-0.2,1.4-1.2,1.6-2.2
				c0.8-2.9,1.1-5.9,1-8.8"/>
			<g>
				<path class="st1" d="M362.4,125.4c-4.2,1.1-7.9,3.1-11,6c-0.6,0.5-0.5,1.5,0,2c1.6,1.7,3.4,3.2,5.3,4.3c1.5,0.9,3.6,2.2,5.5,1.5
					c1.6-0.6,2.1-2.4,2.5-3.9c0.7-2.7,0.9-5.5,0.8-8.4c0-1.9-2.9-1.9-2.9,0c0,1.5,0,3-0.1,4.4c-0.1,1.1-0.3,2.1-0.6,3.2
					c-0.1,0.3-0.1,0.6-0.2,0.9c0,0.8-0.3,1-1.1,0.7c-2.5,0.2-5.7-3.2-7.3-4.8c0,0.7,0,1.3,0,2c2.8-2.6,6.1-4.3,9.8-5.2
					C364.9,127.7,364.1,124.9,362.4,125.4L362.4,125.4z"/>
			</g>
		</g>
		<g>
			<path d="M361.7,136.9c-4.5,1.1-8.7,4.4-11.4,9.2c-1.2,2.1-2.1,4.6-2.2,7.2c-0.1,2.6,0.8,5.4,2.5,6.8c2.4,2,5.9,0.9,8-1.7
				c2.1-2.6,3-6.3,3.5-9.9c0.5-3.6,0.8-7.4,0.7-11c0-0.4,0-0.8,0.1-1.1c0.2-0.3,0.5-0.4,0.8-0.5c4.8-1.8,10.3-2.4,14.5,1
				c1.8,1.4,3.3,4,2.7,6.5c-0.4,1.5-1.4,2.6-2.6,3.2c-2.8,1.4-6.1,0.4-8.6-1.8c-2.5-2.1-4.3-5.3-6.1-8.4"/>
			<g>
				<path class="st1" d="M361.4,135.5c-6.1,1.6-11,6.4-13.4,12.2c-2,4.8-2.1,13.9,4.7,14.8c6.8,0.9,9.6-7.3,10.6-12.5
					c0.3-1.9,0.6-3.8,0.7-5.7c0.1-1.1,0.1-2.1,0.2-3.2c0-0.8-0.3-3.1,0-3.7c0.7-1.1,3.5-1.3,4.6-1.5c2-0.2,3.9-0.2,5.8,0.5
					c2.2,0.8,4.5,2.6,4.9,5.1c0.5,3.1-2.6,4.7-5.3,4.2c-4.6-1-7.3-6.2-9.4-9.9c-0.9-1.6-3.4-0.1-2.5,1.4c3.1,5.3,8.3,13.7,15.7,11.1
					c2.9-1,4.7-3.7,4.4-6.8c-0.4-3.4-3-6.1-6-7.4c-3-1.3-6.4-1.3-9.6-0.7c-1.3,0.3-3.2,0.6-4.3,1.4c-1.3,0.9-1.2,2.2-1.2,3.6
					c0,4.5-0.3,9.2-1.4,13.6c-0.8,3.1-3.7,9.9-8.1,7.4c-2-1.2-2.5-4.3-2.3-6.4c0.2-2.4,1.1-4.7,2.4-6.8c2.3-3.8,5.8-6.7,10.2-7.8
					C363.9,137.8,363.2,135,361.4,135.5L361.4,135.5z"/>
			</g>
		</g>
		<g>
			<path class="st7" d="M367.9,141.8c-2.3-1.3-5.8,0.2-6.4,2.9c-0.2,1.1,0,2.2,0.2,3.3c1.1,5,3.3,9.7,6.4,13.9
				c1.8,2.3,4.6,4.6,7.3,3.5c2.7-1.2,2.9-4.9,2.5-7.8c-0.4-3.7-1.1-7.5-3-10.7s-5.3-5.7-9-5.7c-1.1,0-2.4,0.4-3,1.3
				c-0.4,0.6-0.5,1.4-0.5,2.2c0,4.3,1.3,8.7,3.7,12.3"/>
			<g>
				<path class="st7" d="M368.6,140.5c-2.3-1.1-5.1-0.8-7,1.1c-2.3,2.3-1.6,5.7-0.8,8.6c1.1,3.7,2.7,7.4,4.8,10.6
					c1.7,2.6,4,5.5,7.3,6.1c7.4,1.2,6.6-8.6,5.9-13c-1.1-6.3-4.7-13.5-11.9-14.1c-10.1-1-5,13.4-2.1,17.9c1,1.5,3.5,0.1,2.5-1.4
					c-1.7-2.6-2.9-5.4-3.3-8.5c-0.2-1.8-0.6-5,1.9-5.2c1.3,0,2.7,0.4,3.9,1.1c5.1,2.9,6.5,9.7,6.8,15c0.1,2.2-0.2,6.3-3.5,5.4
					c-2.9-0.8-4.8-4.3-6.2-6.7c-1.5-2.6-2.6-5.3-3.4-8.2c-0.4-1.4-1.1-3.4-0.3-4.8c0.8-1.3,2.6-1.9,4-1.3
					C368.9,143.8,370.3,141.3,368.6,140.5L368.6,140.5z"/>
			</g>
		</g>
		<circle class="st15" cx="439.2" cy="215.6" r="41.4"/>
		
			<ellipse transform="matrix(0.3995 -0.9167 0.9167 0.3995 52.2472 470.3501)" class="st3" cx="385.2" cy="195.3" rx="11" ry="31.8"/>
		<circle class="st15" cx="421.1" cy="118.1" r="41.4"/>
		<g>
			<path class="st6" d="M374.6,115.6c-0.7,0.4-1,1.2-1,2c0.1,0.8,0.5,1.4,0.9,2c0.6,0.8,1.3,1.6,2.2,2.1c2.1,1,5-0.3,5.9-2.4
				s-0.3-4.7-2.5-5.4c-2.2-0.8-5,0.3-6.3,2.2"/>
			<g>
				<path class="st6" d="M373.9,114.4c-3.1,2.3-1.2,6.3,1.5,8.1c2.6,1.8,6.4,0.8,8.1-1.8c1.8-2.7,0.7-6.4-2.1-7.9
					c-3.1-1.6-6.7,0-8.6,2.5c-1.1,1.5,1.4,2.9,2.5,1.4c0.9-1.2,2.4-1.9,3.9-1.7c1.7,0.2,2.9,2,2.2,3.6c-0.5,1.2-2.1,2.1-3.4,1.9
					c-1-0.1-3.9-2.8-2.6-3.7C376.7,115.7,375.3,113.2,373.9,114.4L373.9,114.4z"/>
			</g>
		</g>
	</g>
	<g>
		<g>
			<path d="M1051.7,123.4c1.3-4.1-0.8-8.7-4.2-11.4c-3.4-2.7-7.7-3.7-12-4.5c-3.4-0.6-6.8-0.9-10.3-1.1c-2.2-0.1-4.7,0-6.4,1.3
				c-3.1,2.5-2.3,7.5,0,10.8c3.1,4.4,8.1,7.2,13.3,8.5c5.2,1.3,10.7,1.2,16,0.6c1.8-0.2,3.8-0.6,4.7-2.3c0.3-0.7,0.4-1.5,0.4-2.4
				c0.1-3.2-0.5-7.3-3.6-8"/>
			<g>
				<path class="st1" d="M1053.1,123.8c2.3-8.2-4.9-14.4-12-16.5c-4.5-1.3-9.3-1.8-13.9-2.2c-3.6-0.2-8-0.5-10.4,2.8
					c-4.4,6,1.7,13.6,6.7,16.9c7.4,4.9,17,5.3,25.5,4.2c4.3-0.6,6-2.9,5.9-7.2c-0.1-3.4-1.1-7-4.6-8.2c-1.8-0.6-2.5,2.2-0.8,2.8
					c2.9,1,3.7,8,0.9,9.3c-1.6,0.7-3.9,0.6-5.6,0.8c-2.1,0.1-4.2,0.1-6.3,0c-7.1-0.4-15.7-3.3-19.1-10.1c-1.6-3.2-1.6-7.6,2.6-8.5
					c4.1-0.8,9.2,0.2,13.3,0.9c6.8,1.2,17.7,5,15.1,14.1C1049.7,124.8,1052.5,125.6,1053.1,123.8L1053.1,123.8z"/>
			</g>
		</g>
		<g>
			<path class="st2" d="M1015.9,115.8c-2.1,1.2-3.1,3.8-2.8,6.1c0.2,2.3,1.4,4.3,2.7,6.1c1.8,2.5,3.9,4.9,6.8,6.3
				c6.3,2.9,15.2-0.8,17.9-7.2c2.7-6.4-1-14.2-7.5-16.5c-6.6-2.4-15,0.8-18.9,6.7"/>
		</g>
		<g>
			<path class="st5" d="M956.7,163.1c-3,0.3-5.7,2.1-7.5,4.4c-1.8,2.3-2.8,5-3.4,7.7c-1.5,6.9-0.7,14.2,2.4,20.7l-2.6-9.2
				c-9.8,6.5-14.1,18.7-12,29.7s9.9,20.6,19.7,27c21,13.6,51.4,12.5,71.9-1.7s30.4-40,25.2-63.2c-1.6-7.2-4.5-14.1-7.3-20.9
				c-6.4-15.8-12.4-31.7-18.1-47.8l0.7,1.5c-2.7-6.7-8.9-12-16.1-14.7c-7.2-2.7-15.3-2.9-22.9-1.5c-9.5,1.8-18.6,6.5-23.6,14.2
				c-4.6,7.2-5,16.2-3.1,24.4s6.1,15.7,10.3,23.2l-5.7-13.6c-3.5-0.4-6.9,2-8.3,5c-1.4,3-1.2,6.5-0.5,9.7c1.6,8.3,5.7,16,9.9,23.4
				c-0.2-0.3-0.5-0.7-0.7-1"/>
			<g>
				<path class="st5" d="M956.5,162.4c-14.8,2.4-13.5,23.8-9,33.9c0.3,0.8,1.5,0.2,1.3-0.6c-0.9-3.1-1.8-6.1-2.6-9.2
					c-0.1-0.4-0.7-0.7-1.1-0.4c-7,4.9-11.5,12.4-12.5,20.8c-1.2,8.9,1.8,17.7,7.1,24.8c11.1,14.9,29.8,22.1,48,22
					c18.4,0,36.5-7.2,48.9-20.9c11.7-13.1,17.8-31.2,15.7-48.8c-1.5-12.4-7.2-23.9-11.7-35.4c-5.1-12.9-9.9-25.9-14.5-39
					c-0.4,0.2-0.9,0.4-1.3,0.6c0.2,0.5,0.5,1,0.7,1.5c0.4,0.9,1.6,0.1,1.2-0.7c-6.8-16-26.8-19.7-42-16c-7.4,1.8-14.8,5.4-19.8,11.4
					c-5.2,6.2-6.9,14.4-6.1,22.3c1.2,10.3,6.3,19.7,11.3,28.6c0.4,0.7,1.6,0.2,1.3-0.6c-1.9-4.5-3.8-9-5.7-13.6
					c-0.1-0.3-0.3-0.5-0.7-0.5c-3.1-0.2-6,1.2-7.9,3.7c-2.4,3.1-2.4,7.1-1.8,10.8c1.4,8.9,5.8,17.1,10.2,24.8
					c0.4-0.2,0.8-0.5,1.2-0.7c-0.2-0.3-0.5-0.7-0.7-1c-0.5-0.8-1.8,0-1.2,0.7c0.2,0.3,0.5,0.7,0.7,1c0.5,0.8,1.7,0.1,1.2-0.7
					c-3.6-6.2-7-12.6-8.9-19.6c-1-3.5-1.9-7.4-1.1-11.1c0.9-3.8,4.2-6.7,8.3-6.4c-0.2-0.2-0.5-0.3-0.7-0.5c1.9,4.5,3.8,9,5.7,13.6
					c0.4-0.2,0.9-0.4,1.3-0.6c-7.6-13.7-17-31.7-7.3-46.8c8.4-13,27.8-17.2,42-13.5c8.3,2.1,16,7.4,19.4,15.5
					c0.4-0.2,0.8-0.5,1.2-0.7c-0.2-0.5-0.5-1-0.7-1.5c-0.3-0.7-1.6-0.2-1.3,0.6c3.7,10.7,7.7,21.3,11.8,31.9
					c3.9,10.1,8.5,20,11.8,30.4c5.4,17,3.3,35.2-6,50.5c-9.3,15.2-24.8,25.2-42.3,28.3c-17.6,3.2-37.1-0.4-51.1-12.1
					c-7.8-6.3-14.1-15.4-14.9-25.7c-0.9-10.1,3.6-20.3,12-26.1c-0.3-0.1-0.7-0.3-1.1-0.4c0.9,3.1,1.8,6.1,2.6,9.2
					c0.4-0.2,0.9-0.4,1.3-0.6c-4.2-9.3-5.7-29.5,8.1-31.7C957.8,163.6,957.5,162.2,956.5,162.4L956.5,162.4z"/>
			</g>
		</g>
		<g>
			<path d="M969.1,127.7c-3.4-2.6-8.5-2.1-12.1,0.2c-3.6,2.3-6.1,6.1-8.2,9.8c-1.7,3-3.1,6.1-4.4,9.3c-0.8,2.1-1.6,4.4-0.9,6.5
				c1.2,3.8,6.4,4.7,10.2,3.6c5.2-1.5,9.5-5.2,12.4-9.8c2.9-4.5,4.7-9.7,5.9-14.9c0.4-1.7,0.7-3.8-0.6-5.1c-0.6-0.6-1.3-0.9-2.1-1.2
				c-3-1.2-7-2-8.7,0.7"/>
			<g>
				<path class="st1" d="M969.5,127c-6.6-4.7-14.4,0-18.4,5.7c-2.6,3.7-4.6,7.8-6.4,11.9c-1.4,3.2-3.3,7.2-1.1,10.5
					c3.9,5.7,12.7,2.5,17-0.8c6.9-5.2,10.4-13.6,12.2-21.9c0.9-3.9-0.1-6.2-4-7.4c-3-1-6.5-1.4-8.6,1.3c-0.6,0.7,0.7,1.4,1.2,0.7
					c1.3-1.7,3.6-1.5,5.5-1.1c2.4,0.5,4.9,1.3,4.8,4.3c0,2-0.8,4.1-1.4,6c-0.6,2.1-1.3,4.2-2.3,6.2c-3,6.6-9.1,14-17,14.3
					c-4.6,0.2-8.1-2.6-6.6-7.5c1.2-4,3.3-7.9,5.2-11.5c3.6-6.4,11.2-15,19.1-9.4C969.5,128.8,970.2,127.6,969.5,127L969.5,127z"/>
			</g>
		</g>
		<g>
			<path class="st2" d="M981.3,127.3c-2.1,1.2-3.1,3.8-2.8,6.1c0.2,2.3,1.4,4.3,2.7,6.1c1.8,2.5,3.9,4.9,6.8,6.3
				c6.3,2.9,15.2-0.8,17.9-7.2s-1-14.2-7.5-16.5c-6.6-2.4-15,0.8-18.9,6.7"/>
		</g>
		<g>
			<path class="st6" d="M981.9,138.5c-0.7,0.4-1,1.2-1,2c0.1,0.8,0.5,1.4,0.9,2c0.6,0.8,1.3,1.6,2.3,2.1c2.1,1,5-0.3,6-2.4
				c0.9-2.1-0.3-4.7-2.5-5.5s-5,0.3-6.3,2.2"/>
			<g>
				<path class="st6" d="M981.2,137.2c-3.1,2.4-1.2,6.3,1.5,8.2c2.6,1.8,6.4,0.8,8.2-1.8c1.8-2.7,0.7-6.5-2.1-8
					c-3.1-1.6-6.8,0-8.7,2.5c-1.1,1.5,1.4,2.9,2.5,1.4c0.9-1.2,2.5-1.9,3.9-1.7c1.7,0.2,2.9,2,2.3,3.7c-0.5,1.2-2.1,2.1-3.4,1.9
					c-1-0.1-3.9-2.8-2.6-3.7C984.1,138.6,982.7,136.1,981.2,137.2L981.2,137.2z"/>
			</g>
		</g>
		<g>
			<path class="st6" d="M1031.4,110.1c-0.7,0.4-1,1.2-1,2c0.1,0.8,0.5,1.4,0.9,2c0.6,0.8,1.3,1.6,2.3,2.1c2.1,1,5-0.3,6-2.4
				c0.9-2.1-0.3-4.7-2.5-5.5s-5,0.3-6.3,2.2"/>
			<g>
				<path class="st6" d="M1030.7,108.9c-3.1,2.4-1.2,6.3,1.5,8.2c2.6,1.8,6.4,0.8,8.2-1.8c1.8-2.7,0.7-6.5-2.1-8
					c-3.1-1.6-6.8,0-8.7,2.5c-1.1,1.5,1.4,2.9,2.5,1.4c0.9-1.2,2.5-1.9,3.9-1.7c1.7,0.2,2.9,2,2.3,3.7c-0.5,1.2-2.1,2.1-3.4,1.9
					c-1-0.1-3.9-2.8-2.6-3.7C1033.6,110.3,1032.2,107.8,1030.7,108.9L1030.7,108.9z"/>
			</g>
		</g>
		<g>
			<path d="M1024.4,126.2c-3.9,0.9-7.6,2.9-10.5,5.6c2.1,2.3,4.7,4.1,7.5,5.4c0.5,0.2,1.1,0.4,1.6,0.3c0.9-0.2,1.4-1.2,1.6-2.2
				c0.8-2.9,1.2-5.9,1-8.9"/>
			<g>
				<path class="st1" d="M1024.1,124.8c-4.2,1.1-7.9,3.1-11.1,6c-0.6,0.5-0.5,1.5,0,2c1.6,1.7,3.4,3.2,5.4,4.4
					c1.5,0.9,3.7,2.2,5.5,1.5c1.6-0.6,2.2-2.4,2.5-3.9c0.7-2.7,0.9-5.6,0.8-8.4c0-1.9-2.9-1.9-2.9,0c0,1.5,0,3-0.1,4.5
					c-0.1,1.1-0.3,2.1-0.6,3.2c-0.1,0.3-0.1,0.6-0.2,0.9c0,0.8-0.3,1-1.1,0.7c-2.5,0.2-5.7-3.2-7.3-4.9c0,0.7,0,1.3,0,2
					c2.8-2.6,6.1-4.3,9.8-5.2C1026.7,127.1,1025.9,124.3,1024.1,124.8L1024.1,124.8z"/>
			</g>
		</g>
		<g>
			<path d="M1023.3,136.4c-4.6,1.1-8.8,4.5-11.5,9.2c-1.2,2.2-2.2,4.6-2.3,7.3c-0.1,2.6,0.8,5.4,2.5,6.9c2.5,2,6,0.9,8-1.7
				c2.1-2.6,3-6.3,3.5-9.9c0.5-3.7,0.8-7.4,0.7-11.1c0-0.4,0-0.8,0.1-1.1c0.2-0.3,0.5-0.4,0.8-0.5c4.8-1.8,10.4-2.4,14.6,1
				c1.8,1.4,3.4,4,2.7,6.6c-0.4,1.5-1.4,2.6-2.6,3.2c-2.8,1.4-6.2,0.4-8.6-1.8c-2.5-2.2-4.3-5.3-6.2-8.4"/>
			<g>
				<path class="st1" d="M1022.9,135c-6.1,1.6-11.1,6.4-13.5,12.3c-2,4.8-2.1,14,4.8,14.9c6.8,0.9,9.7-7.4,10.6-12.6
					c0.3-1.9,0.6-3.8,0.7-5.7c0.1-1.1,0.1-2.2,0.2-3.3c0-0.8-0.3-3.1,0-3.7c0.7-1.2,3.5-1.3,4.7-1.5c2-0.2,3.9-0.2,5.8,0.5
					c2.2,0.8,4.6,2.6,4.9,5.1c0.5,3.1-2.6,4.8-5.3,4.2c-4.7-1-7.3-6.2-9.5-10c-0.9-1.6-3.4-0.1-2.5,1.4c3.1,5.3,8.3,13.7,15.8,11.1
					c2.9-1,4.7-3.7,4.4-6.8c-0.4-3.4-3-6.1-6.1-7.4s-6.4-1.3-9.6-0.7c-1.3,0.3-3.2,0.6-4.3,1.4c-1.3,0.9-1.2,2.2-1.2,3.7
					c0,4.6-0.3,9.2-1.4,13.6c-0.8,3.1-3.7,9.9-8.1,7.4c-2-1.2-2.5-4.3-2.3-6.4c0.2-2.5,1.2-4.8,2.5-6.8c2.4-3.8,5.9-6.7,10.2-7.9
					C1025.5,137.3,1024.7,134.5,1022.9,135L1022.9,135z"/>
			</g>
		</g>
		<g>
			<path class="st7" d="M1029.5,141.3c-2.4-1.3-5.8,0.2-6.4,2.9c-0.2,1.1,0,2.2,0.2,3.3c1.1,5,3.3,9.8,6.4,13.9
				c1.8,2.4,4.7,4.7,7.3,3.5c2.7-1.2,2.9-4.9,2.5-7.9c-0.4-3.7-1.1-7.5-3-10.7s-5.3-5.8-9-5.7c-1.2,0-2.4,0.4-3,1.3
				c-0.4,0.6-0.5,1.4-0.5,2.2c0,4.4,1.3,8.7,3.7,12.3"/>
			<g>
				<path class="st7" d="M1030.2,140.1c-2.4-1.1-5.1-0.8-7,1.2c-2.4,2.4-1.6,5.8-0.8,8.6c1.1,3.7,2.7,7.4,4.9,10.6
					c1.7,2.6,4,5.5,7.4,6.1c7.4,1.2,6.7-8.7,5.9-13.1c-1.1-6.3-4.7-13.5-12-14.2c-10.2-1-5,13.5-2.1,18c1,1.5,3.5,0.1,2.5-1.4
					c-1.7-2.6-2.9-5.4-3.4-8.6c-0.2-1.8-0.6-5,1.9-5.2c1.3,0,2.7,0.4,3.9,1.1c5.1,2.9,6.5,9.8,6.8,15.1c0.1,2.2-0.2,6.3-3.6,5.4
					c-2.9-0.8-4.9-4.3-6.2-6.7c-1.5-2.6-2.6-5.4-3.4-8.3c-0.4-1.4-1.1-3.4-0.3-4.9c0.8-1.3,2.6-1.9,4-1.3
					C1030.4,143.3,1031.9,140.8,1030.2,140.1L1030.2,140.1z"/>
			</g>
		</g>
		<g>
			<g>
				<path d="M960.9,111.5c-1-2.7,7.1-8.5,18.1-12.8c11.1-4.4,20.9-5.7,21.9-3s-7.1,8.5-18.1,12.8
					C971.7,112.9,961.9,114.2,960.9,111.5z"/>
				<path d="M951.1,85.7c-1-2.7,7.1-8.5,18.1-12.8c11.1-4.4,20.9-5.7,21.9-3S984,78.4,973,82.7C961.9,87.1,952.1,88.4,951.1,85.7z"
					/>
				<g>
					<g>
						<path class="st0" d="M953.6,85.8c0.9,0,0.9-1.4,0-1.4C952.6,84.3,952.6,85.8,953.6,85.8L953.6,85.8z"/>
					</g>
				</g>
				<g>
					<path d="M951.3,86.2c0.6-0.2-0.3-1.1-0.7-0.7s-0.2,1.2,0,1.7c3.6,7.9,7.1,15.8,10.7,23.7c0.2,0.4,0.4,0.8,0.7,1.1
						c0.7,0.5,1.7,0.3,2.5,0c12.6-4.4,24.6-10.4,35.7-18c-1.3-8.3-4-16.3-7.8-23.7c-0.4-0.8-0.9-1.6-1.6-1.9
						c-1.1-0.5-2.3,0.1-3.3,0.7c-11.5,6.5-23.4,12.3-35.6,17.1c-0.6,0.2-1.3,0.7-1.2,1.3c0.1,0.7,1.4,0,0.8-0.2L951.3,86.2z"/>
					<g>
						<path d="M951.9,86.7c0-0.1,0.1-0.1,0.2-0.2c0.2-0.3,0.3-0.6,0.1-0.9c-0.6-1.2-2.2-1.2-2.5,0.3c-0.2,1.1,0.7,2.5,1.1,3.5
							c0.8,1.7,1.5,3.4,2.3,5.1c1.6,3.7,3.3,7.4,4.9,11c0.8,1.8,1.6,3.7,2.5,5.5c0.4,0.9,0.9,1.8,1.9,2.1c1.1,0.3,2.2-0.2,3.1-0.6
							c1.9-0.7,3.8-1.4,5.7-2.2c3.3-1.3,6.5-2.7,9.7-4.3c6.8-3.3,13.4-7.1,19.6-11.3c0.3-0.2,0.4-0.5,0.3-0.8
							c-1.3-7.7-3.7-15.3-7.1-22.3c-1-2-2-4.4-4.6-3.9c-1.6,0.3-3.1,1.4-4.5,2.2c-1.8,1-3.7,2-5.5,3c-7.2,3.7-14.5,7.3-21.9,10.4
							c-1.9,0.8-3.9,1.5-5.8,2.4c-0.7,0.3-1.5,0.8-1.5,1.8c0,1.2,1.4,1.6,2.2,0.7c0.2-0.2,0.3-0.6,0.1-0.9s-0.2-0.9-0.2-1.2
							c-0.1-0.9-1.5-0.5-1.4,0.4c0.1,0.5,0,1.1,0.4,1.6c0-0.3,0.1-0.6,0.1-0.9c0.2,0,0.4,0,0.7,0c0.5-0.2,1-0.4,1.5-0.6
							c0.7-0.3,1.4-0.6,2.1-0.9c1-0.4,2.1-0.9,3.1-1.3c2.6-1.1,5.2-2.3,7.8-3.5c5.3-2.5,10.5-5,15.7-7.8c2-1.1,7.4-5.4,9.6-2.9
							c0.8,0.9,1.2,2.3,1.6,3.3c0.7,1.5,1.3,3,2,4.6c2.1,5.2,3.5,10.7,4.4,16.2c0.1-0.3,0.2-0.5,0.3-0.8c-9.2,6.2-19,11.5-29.4,15.6
							c-2,0.8-5.8,3-7.6,2c-1.3-0.7-1.8-2.5-2.4-3.9c-0.6-1.4-1.3-2.8-1.9-4.2c-2.5-5.6-4.8-11.3-7.6-16.7c0-0.3,0.1-0.6,0.1-0.9
							c0,0.1-0.1,0.1-0.2,0.2C950.3,86.4,951.3,87.5,951.9,86.7z"/>
					</g>
				</g>
			</g>
			
				<ellipse transform="matrix(0.9769 -0.2135 0.2135 0.9769 1.9397 215.4774)" class="st8" cx="998.6" cy="98.8" rx="18.5" ry="6.7"/>
		</g>
		<g>
			<path class="st9" d="M930.6,16.9c7-6.7,15.1-12.6,24.5-15s20.2-0.7,27.1,6.2c8.4,8.5,8.7,21.8,8.5,33.7
				c-0.3,15.8-0.6,31.5-0.8,47.2c-3.2-12.3-6.3-24.6-9.5-37c-1.9-7.5-3.9-15.1-7.5-22s-9.2-13-16.4-15.9c-7.8-3.2-16.8-2-24.7,0.8
				L930.6,16.9z"/>
			<g>
				<path class="st9" d="M931.1,17.5C943.2,6.1,962.2-4.7,978.3,6c7.2,4.8,10.2,13.2,11.2,21.4c1.1,8.9,0.4,18,0.3,26.9
					c-0.2,11.6-0.4,23.3-0.6,34.9c0.5,0,1-0.1,1.4-0.2c-2.2-8.6-4.4-17.2-6.7-25.9c-2.1-8.3-3.9-16.7-6.8-24.8
					c-4.5-12.8-13.5-25-28-26.4c-4.1-0.4-8.4,0.1-12.4,1.1c-1.5,0.4-4.3,0.7-5.5,1.7c-0.5,0.4-0.9,1.4-1.2,2
					C929.5,17.5,930.7,18.2,931.1,17.5c0.4-0.6,0.7-1.5,1.1-1.8c0.4-0.3,1.5-0.4,2.1-0.6c1-0.3,1.9-0.5,2.9-0.8
					c3.7-0.9,7.4-1.3,11.1-1.1c7.1,0.5,13.4,3.8,18.2,9c9.9,10.9,12.4,26.9,15.9,40.6c2.3,8.8,4.5,17.6,6.8,26.4
					c0.2,0.8,1.4,0.6,1.4-0.2c0.2-11.5,0.4-23,0.6-34.4c0.1-9.5,0.9-19.2-0.4-28.6c-1.1-8-4.2-15.9-10.9-20.8
					c-6.4-4.9-15-6-22.8-4.6c-10.4,1.9-19.4,8.5-26.9,15.6C929.4,17.1,930.4,18.1,931.1,17.5z"/>
			</g>
		</g>
		<g>
			<path class="st16" d="M1017.2,195.1c3,0.5,6-1.8,7.3-4.6c1.2-2.8,1.2-6.1,1.1-9.1c0-2.3-0.1-4.5-0.2-6.8c0-1.5,0.2-3.4,1.6-3.8
				c1.5-0.5,2.9,1.2,3.7,2.6c1.6,2.9,3.4,5.8,5.4,8.5c0.6,0.9,1.3,1.7,2.2,2.2c1.4,0.7,3.1,0.2,4.6-0.2c2.3-0.7,4.5-1.3,6.7-2
				c2.1-0.6,4.8-1,5.9,0.9s-0.8,4-2.3,5.6c-1.9,1.9-3.5,4.1-4.9,6.4c-0.5,0.9-1,2-0.6,2.9c0.2,0.5,0.7,0.9,1.2,1.2
				c2.6,2,5.3,4,8,6.1c0.8,0.6,1.7,1.3,1.8,2.4c0.2,1.3-1.1,2.5-2.4,2.8c-1.3,0.2-2.7-0.2-3.9-0.8c-2.5-1.1-5-2.3-7.4-3.7
				c-1.4-0.9-3-1.8-4.7-1.4c-2.4,0.5-3.2,3.4-3.9,5.7c-0.8,2.7-1.8,5.4-3.1,8c-0.8,1.5-2.4,3.1-3.8,2.3c-0.5-0.3-0.8-0.8-1-1.3
				c-1.6-4.2,0.6-9.7-2.3-13.2c-2.9-3.6-8.5-2.5-13-3.4c-0.7-0.1-1.5-0.4-1.9-1.1c-0.7-1.2,0.5-2.7,1.7-3.5
				c3.6-2.5,7.6-4.4,11.8-5.6L1017.2,195.1z"/>
			<g>
				<path class="st16" d="M1017.2,195.8c5.4,0.6,8.5-4.7,9-9.4c0.3-3.1,0-6.2,0-9.3c0-1.2-0.3-2.8,0-4.1c1.2-4.1,3.9,0.9,4.7,2.2
					c1.5,2.6,3.2,5.3,5,7.6c1.5,1.9,3.3,2.5,5.6,2c3-0.6,5.9-1.9,8.8-2.6c0.7-0.2,1.5-0.4,2.3-0.3c1.8,0.2,2.8,1.9,1.9,3.6
					c-0.9,1.5-2.3,2.6-3.4,4c-1.5,1.8-4.1,4.6-4.2,7.1c0,2.2,2.4,3.3,3.8,4.5c1.2,0.9,2.4,1.8,3.7,2.7c0.8,0.6,1.9,1.2,2.5,1.9
					c0.1,0.1,0.3,0.3,0.5,0.4c-0.2,2.7-1.3,3.7-3.2,2.9c-3.4-0.9-6.5-3-9.5-4.6c-1.8-1-3.8-1.7-5.7-0.5c-1.7,1.1-2.4,3.3-3,5.1
					c-0.9,3-1.8,6.3-3.5,8.9c-1,1.4-2.8,1.7-3.4-0.1c-0.2-0.8-0.3-1.7-0.4-2.5c-0.1-1.4,0-2.8,0-4.2c-0.2-5.5-3.1-8.5-8.5-9.1
					c-1.6-0.2-3.2-0.2-4.8-0.4c-0.5,0-1.9-0.1-2.4-0.4c-2.4-1.5,0.5-3.1,1.5-3.8c3.3-2.2,6.9-3.7,10.6-4.8c-0.1-0.5-0.2-0.9-0.4-1.4
					c-2.6,1.1-5.1,2.2-7.7,3.2c-0.9,0.3-0.5,1.7,0.4,1.4c2.6-1.1,5.1-2.2,7.7-3.2c0.8-0.3,0.5-1.6-0.4-1.4c-3.5,1-6.8,2.4-9.9,4.3
					c-1.7,1.1-4.9,2.9-4.2,5.4c0.7,2.2,3.8,2.2,5.7,2.4c3.3,0.3,7.7,0,9.7,3.2c1.9,3,0.8,7,1.3,10.3c0.2,1.7,0.9,4.2,3,4.3
					c2.5,0,3.9-3.3,4.7-5.1c0.7-1.6,1.3-3.3,1.8-5c0.5-1.6,0.8-3.4,1.8-4.7c1.9-2.6,4.9-0.6,7,0.6c1.8,1,3.7,1.9,5.6,2.8
					c2.2,1,5,2.1,7.1,0.2c5.5-5-10.3-9.5-10-13.5c0.3-3.9,12.1-10.9,6.8-14.9c-1.9-1.4-4.6-0.6-6.6,0s-3.9,1.2-5.9,1.8
					c-0.9,0.2-2.1,0.7-2.9,0.5c-2-0.4-3-2-4.1-3.5c-1.2-1.7-2.3-3.5-3.4-5.3c-0.8-1.4-1.5-3-2.8-4.1c-1.6-1.3-3.7-0.9-4.5,1.1
					c-0.6,1.5-0.3,3.3-0.3,4.9c0,2.1,0.1,4.2,0.2,6.3c0,4.8-1.3,12-7.7,11.3C1016.2,194.3,1016.3,195.8,1017.2,195.8z"/>
			</g>
		</g>
		<g>
			<g>
				<path class="st17" d="M1028.2,181.2c-0.4,2-0.8,4-1.2,6c0.5,0,1,0.1,1.4,0.2c0-2.5,0.1-4.9,0.1-7.4c0-0.6-0.8-1-1.2-0.5
					c-1.8,2-2.4,4.6-1.7,7.1c0.2,0.6,1.2,0.7,1.4,0c0.3-1.9,0.6-3.9,1-5.8c-0.5,0-1-0.1-1.4-0.2c0,1.7,0,3.4,0,5.1h1.4
					c0-1.2,0.1-2.4,0.6-3.5c-0.5,0-1-0.1-1.4-0.2c0,1.1,0,2.2,0,3.2c0,0.9,1.4,0.9,1.4,0c0-1.1,0-2.2,0-3.2c0-0.9-1.1-0.9-1.4-0.2
					c-0.5,1.2-0.7,2.5-0.7,3.8c0.1,1.1,2,0.9,1.3-0.6c-0.6-1.3-0.7-2.8,0.1-4c0.7-1.1-1.1-1.7-1.2-0.7c-0.3,1.9-0.6,3.9-1,5.8h1.4
					c-0.6-2-0.1-4.1,1.3-5.7c-0.4-0.2-0.8-0.3-1.2-0.5c0,2.5-0.1,4.9-0.1,7.4c0,0.8,1.2,1,1.4,0.2c0.4-2,0.8-4,1.2-6
					C1029.7,180.7,1028.4,180.3,1028.2,181.2L1028.2,181.2z"/>
			</g>
		</g>
		<g>
			<g>
				<path class="st17" d="M1022.4,198.3c0.8,0,1.5-0.7,1.3-1.5c-0.3-1.2-1.6-1.2-2.5-1c0.1,0.5,0.2,0.9,0.4,1.4
					c0.6-0.2,1.2-0.5,1.8-0.7c-0.2-0.4-0.5-0.8-0.7-1.2c-0.4,0.4-1,0.7-1.5,1c-0.8,0.3-0.2,1.5,0.6,1.3c0.7-0.2,1.3-0.4,2-0.6
					c-0.1-0.5-0.2-0.9-0.4-1.4c-1.3,0.5-2.5,1-3.8,1.5c-0.9,0.3-0.5,1.7,0.4,1.4c1.5-0.6,3.2-0.9,4.4-2c1.2-1.2,2.1-2.5,2.9-3.9
					c-0.4-0.2-0.9-0.4-1.3-0.6c-0.2,0.5-0.5,1-0.8,1.4c0.4,0.2,0.8,0.5,1.2,0.7c0.3-1,0.7-1.9,1.2-2.8c-0.4-0.2-0.9-0.4-1.3-0.6
					c-0.2,0.4-0.5,0.7-0.8,1.1c0.4,0.2,0.8,0.5,1.2,0.7c0.3-1.2,0.7-2.5,1.1-3.7c0.2-0.9-1.1-1.2-1.4-0.4c-0.3,0.9-0.6,1.8-0.9,2.7
					c0.5,0,1,0.1,1.4,0.2c0-1.4,0.2-2.5,0.7-3.8c0.3-0.8-1-1.3-1.3-0.6c-0.4,0.9-0.6,1.7-0.6,2.6c0.5,0,1,0,1.4,0c0-1.2,0-2.4,0-3.6
					c-0.5,0-1,0.1-1.4,0.2c0.5,2.1,0.5,4.1,0,6.2c-0.2,0.9,1.2,1.3,1.4,0.4c0.5-2.4,0.6-4.6,0-7c-0.2-0.8-1.4-0.6-1.4,0.2
					c0,1.2,0,2.4,0,3.6c0,0.9,1.4,0.9,1.4,0c0.1-0.6,0.3-1.3,0.4-1.9c-0.4-0.2-0.9-0.4-1.3-0.6c-0.6,1.4-0.8,2.7-0.8,4.2
					c0,0.8,1.2,1,1.4,0.2c0.3-0.9,0.6-1.8,0.9-2.7c-0.5-0.1-0.9-0.2-1.4-0.4c-0.3,1.2-0.7,2.5-1.1,3.7c-0.2,0.8,0.7,1.1,1.2,0.7
					c0.6-0.5,0.9-1,1.2-1.7s-0.9-1.2-1.3-0.6c-0.6,1-1,2-1.3,3.2c-0.2,0.7,0.7,1.2,1.2,0.7c0.6-0.7,0.9-1.2,1.2-2.1
					c0.2-0.8-0.9-1.3-1.3-0.6c-0.6,1.2-1.4,2.5-2.4,3.4c-1.1,1-2.6,1.4-4,1.9c0.1,0.5,0.2,0.9,0.4,1.4c1.3-0.5,2.5-1,3.8-1.5
					c0.8-0.3,0.5-1.6-0.4-1.4c-0.7,0.2-1.3,0.4-2,0.6c0.2,0.4,0.4,0.9,0.6,1.3c0.7-0.3,1.2-0.7,1.9-1.2c0.5-0.4,0-1.5-0.7-1.2
					c-0.6,0.2-1.2,0.5-1.8,0.7c-0.9,0.3-0.5,1.6,0.4,1.4c0.3-0.1,0.6-0.2,0.9-0.3C1021.4,196.9,1021.4,198.3,1022.4,198.3
					L1022.4,198.3z"/>
			</g>
		</g>
		<g>
			<g>
				<path class="st17" d="M1031.8,207.7c0-0.9-0.2-1.6-0.9-2.2c-0.4-0.4-1.2-0.1-1.2,0.5c0,2.4,0,4.8,0,7.2c0.5,0,1-0.1,1.4-0.2
					c-0.3-1.4-0.7-2.8-1-4.2c-0.4,0.2-0.9,0.4-1.3,0.6c0.6,1,1.3,1.9,1.9,2.9c0.5,0.8,1.8,0,1.2-0.7c-0.6-1-1.3-1.9-1.9-2.9
					c-0.4-0.7-1.5-0.2-1.3,0.6c0.3,1.4,0.7,2.8,1,4.2c0.2,0.8,1.4,0.6,1.4-0.2c0-2.4,0-4.8,0-7.2c-0.4,0.2-0.8,0.3-1.2,0.5
					c0.4,0.3,0.6,0.7,0.4,1.2C1030.3,208.6,1031.7,208.6,1031.8,207.7L1031.8,207.7z"/>
			</g>
		</g>
		<g>
			<g>
				<path class="st17" d="M1030,208c-0.1,1.1-0.2,2.1-0.2,3.1c0.5,0,1-0.1,1.4-0.2c-0.3-1.3-0.7-2.7-1-4.1c-0.2-0.9-1.6-0.5-1.4,0.4
					c0.3,1.7,0.7,3.4,1.1,5.1c0.1-0.3,0.2-0.5,0.3-0.8c0.1,0.1,0.2,0.2,0.3,0.3c0.5-0.8-0.7-1.5-1.2-0.7c-0.7,1.1,0.6,2.3,1.6,1.7
					c0.3-0.1,0.4-0.5,0.3-0.8c-0.3-1.7-0.7-3.4-1.1-5.1c-0.5,0.1-0.9,0.2-1.4,0.4c0.3,1.3,0.7,2.7,1,4.1c0.2,0.8,1.3,0.6,1.4-0.2
					c0.1-1.1,0.2-2.1,0.2-3.1C1031.4,207.1,1030,207.1,1030,208L1030,208z"/>
			</g>
		</g>
	</g>
	<g>
		<g>
			<path d="M840.3,101.5c0.7-4.4-2.3-8.7-6.2-10.8c-3.8-2.1-8.4-2.5-12.9-2.5c-3.6,0-7.1,0.2-10.6,0.6c-2.3,0.3-4.7,0.7-6.3,2.4
				c-2.8,3-1.1,8,1.9,11c3.9,3.9,9.4,5.9,15,6.4c5.5,0.4,11.1-0.6,16.4-2.1c1.8-0.5,3.8-1.3,4.4-3.1c0.2-0.8,0.2-1.6,0-2.4
				c-0.4-3.2-1.7-7.3-4.9-7.5"/>
			<g>
				<path class="st1" d="M841.8,101.5c0.9-8.5-7.3-13.5-14.7-14.5c-4.9-0.7-10.1-0.4-15,0.2c-3.4,0.3-7.4,0.7-9.4,3.8
					c-4.6,6.9,3.6,14.3,9.3,16.8c8.3,3.6,18.2,2.6,26.6-0.1c3.9-1.3,5.4-3.7,4.7-7.7c-0.6-3.4-2.1-7.4-5.9-7.9
					c-1.9-0.3-2.7,2.6-0.8,2.9c1.8,0.3,2.7,1.7,3.2,3.4c0.5,1.5,1.4,4.3,0.1,5.6c-1.2,1.2-3.8,1.5-5.4,1.9c-2.3,0.5-4.5,1-6.9,1.3
					c-7.4,0.8-17.1-0.6-21.6-7.4c-2.2-3.4-2.1-7.6,2.3-8.8c4.1-1.1,8.8-1.1,12.9-1.1c7.2,0,18.6,2.2,17.6,11.8
					C838.6,103.4,841.6,103.4,841.8,101.5L841.8,101.5z"/>
			</g>
		</g>
		<g>
			<path class="st2" d="M806.1,110.3c-2.2,1.2-3.2,3.9-2.9,6.2c0.2,2.3,1.5,4.4,2.8,6.3c1.8,2.6,4,5.1,7,6.5
				c6.5,3,15.6-0.8,18.4-7.4c2.8-6.6-1-14.6-7.7-17s-15.4,0.8-19.4,6.8"/>
		</g>
		
			<ellipse transform="matrix(0.1288 -0.9917 0.9917 0.1288 531.3592 997.5172)" class="st3" cx="833.4" cy="196.3" rx="11.4" ry="32.8"/>
		<g>
			<path class="st5" d="M745.2,158.8c-3.1,0.3-5.8,2.2-7.7,4.5c-1.8,2.3-2.9,5.1-3.5,7.9c-1.6,7.1-0.8,14.6,2.4,21.3l-2.7-9.4
				c-10,6.7-14.5,19.3-12.4,30.6c2.2,11.3,10.1,21.2,20.3,27.8c21.6,14,52.8,12.9,74-1.6c21.1-14.5,31.3-41,26.1-64.9
				c-1.6-7.4-4.6-14.5-7.4-21.6c-6.5-16.3-12.7-32.6-18.5-49.1l0.7,1.6c-2.8-6.9-9.2-12.3-16.6-15.1c-7.4-2.8-15.8-3-23.6-1.6
				c-9.7,1.9-19.2,6.7-24.3,14.6c-4.8,7.4-5.2,16.6-3.2,25s6.3,16.2,10.6,23.8l-5.9-14c-3.6-0.5-7.1,2.1-8.6,5.2
				c-1.4,3.1-1.2,6.7-0.5,10c1.7,8.5,5.8,16.4,10.1,24.1c-0.2-0.3-0.5-0.7-0.7-1"/>
			<g>
				<path class="st5" d="M745,158.1c-15.3,2.3-14,24.4-9.3,34.8c0.3,0.8,1.6,0.2,1.3-0.6c-0.9-3.2-1.8-6.3-2.7-9.4
					c-0.1-0.4-0.7-0.7-1.1-0.4c-7.2,5-11.8,12.7-12.9,21.4c-1.2,9.1,1.8,18.2,7.3,25.6c11.3,15.3,30.6,22.7,49.3,22.7
					c18.9,0,37.6-7.3,50.3-21.4c12.1-13.5,18.3-32.1,16.2-50.1c-1.5-12.7-7.3-24.6-11.9-36.4c-5.2-13.2-10.2-26.6-14.8-40.1
					c-0.4,0.2-0.9,0.4-1.3,0.6c0.2,0.5,0.5,1,0.7,1.6c0.4,0.9,1.6,0.1,1.3-0.7c-7-16.4-27.5-20.3-43.2-16.5
					c-7.7,1.8-15.3,5.6-20.4,11.7c-5.3,6.4-7.1,14.8-6.3,23c1.2,10.6,6.5,20.2,11.6,29.4c0.4,0.7,1.7,0.2,1.3-0.6
					c-2-4.6-3.9-9.3-5.9-14c-0.1-0.3-0.3-0.5-0.7-0.5c-3.2-0.3-6.2,1.2-8.1,3.7c-2.4,3.2-2.5,7.3-1.9,11.1
					c1.4,9.1,5.9,17.5,10.4,25.5c0.4-0.2,0.8-0.5,1.3-0.7c-0.2-0.3-0.5-0.7-0.7-1c-0.5-0.8-1.8-0.1-1.3,0.7c0.2,0.3,0.5,0.7,0.7,1
					c0.5,0.8,1.8,0.1,1.3-0.7c-3.6-6.4-7.1-13-9.2-20.1c-1-3.6-2-7.7-1.1-11.4c0.9-4,4.4-6.9,8.5-6.6c-0.2-0.2-0.5-0.3-0.7-0.5
					c2,4.6,3.9,9.3,5.9,14c0.4-0.2,0.9-0.4,1.3-0.6c-7.8-14.1-17.4-32.6-7.4-48.1c8.7-13.3,28.6-17.6,43.2-13.9
					c8.5,2.2,16.4,7.7,19.9,15.9c0.4-0.2,0.8-0.5,1.3-0.7c-0.2-0.5-0.5-1-0.7-1.6c-0.3-0.7-1.6-0.2-1.3,0.6c3.8,11,7.9,21.9,12,32.8
					c4,10.4,8.7,20.6,12,31.2c5.5,17.4,3.3,36.2-6.3,51.9c-9.6,15.6-25.5,25.9-43.5,29.1c-18.1,3.2-38.2-0.5-52.5-12.5
					c-7.9-6.6-14.3-16-15.2-26.5c-0.9-10.4,3.7-20.8,12.4-26.8c-0.3-0.1-0.7-0.3-1.1-0.4c0.9,3.2,1.8,6.3,2.7,9.4
					c0.4-0.2,0.9-0.4,1.3-0.6c-4.3-9.6-5.8-30.4,8.4-32.6C746.4,159.4,746,158,745,158.1L745,158.1z"/>
			</g>
		</g>
		<g>
			<path d="M753.7,124.5c-3.3-3-8.5-2.9-12.4-0.9s-6.8,5.7-9.3,9.3c-2,3-3.8,6-5.4,9.2c-1,2.1-2,4.3-1.5,6.6c1,4,6.1,5.3,10.1,4.5
				c5.4-1.1,10.2-4.5,13.6-8.9c3.4-4.3,5.6-9.5,7.3-14.8c0.5-1.8,1-3.9-0.1-5.3c-0.5-0.6-1.3-1-2-1.3c-2.9-1.4-7-2.6-9,0"/>
			<g>
				<path class="st1" d="M754.2,123.9c-6.1-5.1-14.2-1.8-18.9,3.5c-3,3.4-5.4,7.3-7.6,11.2c-1.8,3.2-4.5,7.3-3,11
					c2.7,6.8,12.5,4.6,17.2,1.8c7.3-4.3,11.6-12,14.3-19.8c1.4-3.9,2.3-7.6-2.2-9.6c-3-1.4-7-2.6-9.6,0.2c-0.6,0.7,0.4,1.7,1,1
					c1.6-1.8,4-1.4,6.1-0.7c0.9,0.3,2,0.6,2.8,1.2c1.8,1.3,1.8,2.5,1.4,4.4c-0.9,4-2.7,8-4.8,11.5c-3.6,6.3-10.3,13-18.2,12.9
					c-4.6-0.1-8.2-3.1-6.5-8c1.4-4,4-7.9,6.3-11.4c4.1-6.2,12.8-14.8,20.5-8.3C753.9,125.6,754.9,124.6,754.2,123.9L754.2,123.9z"/>
			</g>
		</g>
		<g>
			<path class="st2" d="M770.5,122.1c-2.2,1.2-3.2,3.9-2.9,6.2c0.2,2.3,1.5,4.4,2.8,6.3c1.8,2.6,4,5.1,7,6.5
				c6.5,3,15.6-0.8,18.4-7.4c2.8-6.6-1-14.6-7.7-17s-15.4,0.8-19.4,6.8"/>
		</g>
		<g>
			<path d="M814.8,121c-4,0.9-7.8,2.9-10.8,5.8c2.2,2.4,4.8,4.3,7.7,5.5c0.5,0.2,1.1,0.4,1.7,0.3c0.9-0.2,1.4-1.3,1.7-2.3
				c0.8-3,1.2-6.1,1.1-9.1"/>
			<g>
				<path class="st1" d="M814.4,119.6c-4.3,1.1-8.2,3.1-11.4,6.2c-0.6,0.5-0.5,1.5,0,2.1c1.6,1.7,3.5,3.3,5.5,4.5
					c1.6,0.9,3.8,2.3,5.7,1.6c1.7-0.6,2.2-2.5,2.6-4c0.7-2.8,0.9-5.7,0.9-8.6c0-1.9-3-1.9-3,0c0,1.5,0,3.1-0.2,4.6
					c-0.2,1.1-0.3,2.2-0.6,3.3c-0.1,0.3-0.1,0.6-0.2,0.9c0,0.8-0.3,1-1.1,0.7c-2.6,0.2-5.9-3.3-7.5-5c0,0.7,0,1.4,0,2.1
					c2.9-2.7,6.3-4.4,10.1-5.4C817,122,816.3,119.1,814.4,119.6L814.4,119.6z"/>
			</g>
		</g>
		<g>
			<path d="M813.7,131.5c-4.7,1.1-9,4.6-11.8,9.5c-1.2,2.2-2.2,4.7-2.3,7.5c-0.1,2.7,0.8,5.6,2.6,7.1c2.5,2.1,6.1,0.9,8.3-1.8
				c2.1-2.7,3.1-6.5,3.6-10.2c0.6-3.8,0.8-7.6,0.7-11.4c0-0.4,0-0.8,0.2-1.1s0.5-0.4,0.8-0.5c4.9-1.9,10.7-2.5,15,1.1
				c1.8,1.5,3.5,4.2,2.8,6.8c-0.4,1.5-1.5,2.7-2.7,3.3c-2.9,1.5-6.3,0.4-8.9-1.8s-4.4-5.5-6.3-8.7"/>
			<g>
				<path class="st1" d="M813.4,130.1c-6.3,1.7-11.4,6.6-13.9,12.6c-2,4.9-2.2,14.4,4.9,15.3c7,0.9,10-7.5,10.9-12.9
					c0.3-1.9,0.6-3.9,0.8-5.9c0.1-1.1,0.2-2.2,0.2-3.4c0.1-0.8-0.3-3.2,0.1-3.8c0.7-1.2,3.6-1.4,4.8-1.6c2-0.2,4.1-0.2,6,0.5
					c2.3,0.8,4.7,2.7,5.1,5.2c0.5,3.2-2.7,4.9-5.4,4.3c-4.8-1-7.5-6.4-9.7-10.3c-0.9-1.6-3.5-0.2-2.6,1.5
					c3.2,5.4,8.5,14.1,16.2,11.5c3-1,4.8-3.8,4.6-7c-0.4-3.5-3.1-6.3-6.2-7.7c-3.1-1.4-6.6-1.4-9.9-0.7c-1.4,0.3-3.3,0.6-4.4,1.4
					c-1.3,0.9-1.2,2.3-1.2,3.8c0,4.7-0.3,9.5-1.5,14c-0.8,3.2-3.9,10.2-8.4,7.6c-2.1-1.2-2.6-4.4-2.4-6.6c0.2-2.5,1.2-4.9,2.5-7
					c2.4-3.9,6-6.9,10.5-8.1C816,132.5,815.2,129.6,813.4,130.1L813.4,130.1z"/>
			</g>
		</g>
		<g>
			<path class="st7" d="M820.1,136.6c-2.4-1.4-6,0.2-6.6,3c-0.2,1.1-0.1,2.3,0.2,3.4c1.1,5.2,3.4,10.1,6.5,14.3
				c1.8,2.4,4.8,4.8,7.5,3.6c2.8-1.2,3-5.1,2.6-8.1c-0.4-3.8-1.1-7.7-3-11s-5.5-5.9-9.3-5.9c-1.2,0-2.5,0.4-3.1,1.3
				c-0.4,0.6-0.5,1.5-0.5,2.3c-0.1,4.5,1.3,9,3.8,12.7"/>
			<g>
				<path class="st7" d="M820.8,135.3c-2.4-1.1-5.2-0.8-7.2,1.2c-2.4,2.4-1.6,5.9-0.8,8.9c1.1,3.9,2.8,7.6,5,10.9
					c1.8,2.7,4.1,5.7,7.5,6.3c7.7,1.3,6.9-8.9,6.1-13.5c-1.1-6.5-4.8-13.9-12.3-14.6c-10.5-1.1-5.2,13.9-2.2,18.5
					c1,1.6,3.6,0.1,2.6-1.5c-1.8-2.7-3-5.6-3.4-8.8c-0.2-1.8-0.6-5.2,1.9-5.3c1.4,0,2.8,0.4,4,1.1c5.2,3,6.7,10,7,15.6
					c0.1,2.3-0.3,6.5-3.7,5.6c-3-0.8-5-4.4-6.4-6.9c-1.5-2.7-2.7-5.5-3.5-8.5c-0.4-1.5-1.1-3.5-0.3-5c0.8-1.4,2.7-2,4.1-1.3
					C821,138.7,822.6,136.1,820.8,135.3L820.8,135.3z"/>
			</g>
		</g>
		<g>
			<g>
				<path d="M792.5,90.5c-0.8-2.9-11-2.9-22.8,0s-20.8,7.6-20,10.4c0.8,2.9,11,2.9,22.8,0C784.3,98.1,793.2,93.3,792.5,90.5z"/>
				<path d="M785.3,63.1c-0.8-2.9-11-2.9-22.8,0c-11.8,2.9-20.8,7.6-20,10.4c0.8,2.9,11,2.9,22.8,0S786,66,785.3,63.1z"/>
				<g>
					<g>
						<path class="st0" d="M782.8,64.7c0.9,0,0.9-1.5,0-1.5C781.9,63.2,781.9,64.7,782.8,64.7L782.8,64.7z"/>
					</g>
				</g>
				<g>
					<path d="M785.4,63.7c-0.6,0.2-0.4-1.1,0.2-1c0.6,0.1,0.8,0.8,1,1.5c1.7,8.7,3.5,17.4,5.2,26.2c0.1,0.4,0.2,0.9,0,1.3
						c-0.2,0.8-1.2,1.2-2.1,1.5C776.6,97,763,99,749.2,99.3c-3.8-7.7-6.4-16-7.6-24.5c-0.1-0.9-0.2-1.8,0.3-2.6c0.6-1,2-1.2,3.2-1.3
						c13.4-1.4,26.8-3.6,39.9-6.7c0.6-0.1,1.5-0.2,1.8,0.4c0.3,0.6-1.1,0.9-0.8,0.3L785.4,63.7z"/>
					<g>
						<path d="M785.6,63c0.3,0,1.3,6.4,1.4,7c0.5,2.3,0.9,4.7,1.4,7c0.4,2.2,0.9,4.3,1.3,6.5c0.2,1.1,0.4,2.2,0.6,3.3
							c0.2,0.9,1,2.9,0.7,3.8c-0.7,2.5-4.7,2.9-6.9,3.4c-2.1,0.5-4.3,1-6.4,1.5c-4.6,1-9.3,1.7-14.1,2.2c-2.2,0.2-4.3,0.4-6.5,0.6
							c-1.1,0.1-2.2,0.1-3.3,0.2c-1,0-2.8,0.5-3.8,0.1c-1.5-0.5-2.6-4.6-3.1-5.9c-0.8-2.1-1.5-4.2-2.2-6.3c-0.6-2-1.1-4-1.6-6
							c-0.4-1.8-1.7-5.4-1-7.3s4.8-1.6,6.6-1.8c2-0.2,4-0.5,5.9-0.7c5.2-0.7,10.5-1.5,15.7-2.5c2.5-0.5,5-1,7.6-1.5
							c1.2-0.2,2.5-0.5,3.8-0.8c0.5-0.1,0.9-0.2,1.4-0.3c0.2,0,2.9-0.9,2.9-0.9c0.2,0.2,0.3,0.5,0.5,0.7c0-0.6-0.4-1.1-0.7-1.7
							c-0.4-0.8-1.7-0.1-1.3,0.7c0.1,0.2,0.4,0.7,0.5,1c0,0.3,0.2,0.6,0.5,0.7c1.1,0.3,2.2-0.7,1.5-1.8c-0.4-0.7-1.3-0.7-2-0.6
							c-2,0.1-4.2,0.9-6.1,1.4c-8.7,1.9-17.5,3.4-26.4,4.5c-2.2,0.3-4.5,0.5-6.7,0.8c-1.1,0.1-2.4,0.1-3.4,0.6
							c-2.4,1.2-1.8,3.9-1.4,6.1c1.3,8,3.9,15.7,7.4,22.9c0.1,0.2,0.4,0.4,0.6,0.3c8.2-0.1,16.3-0.9,24.4-2.3
							c4.3-0.7,8.5-1.7,12.7-2.8c2-0.5,6-0.8,6.3-3.5c0.2-1.6-0.5-3.4-0.8-4.9c-0.4-2.2-0.9-4.3-1.3-6.5c-0.8-4.2-1.7-8.4-2.5-12.7
							c-0.2-0.9-0.5-6.2-2.9-5.2c-1,0.4-1.1,2.1,0.1,2.3C786.1,64.6,786.5,63.1,785.6,63z"/>
					</g>
				</g>
			</g>
			<path class="st8" d="M750.7,95.9c-9.6,4.1-16.3,10.2-14.7,13.8c1.5,3.5,10.6,3,20.2-1c9.6-4.1,16.3-10.2,14.7-13.8
				C769.4,91.4,760.3,91.8,750.7,95.9z"/>
		</g>
		<g>
			<path class="st9" d="M749.2,94.8c-2-12.6-9.9-24.2-21-30.8s-25.3-8.1-37.6-4.1c-10,3.3-18.5,9.9-28.1,14s-21.9,5.3-29.8-1.5
				c-5.7-5-7.5-12.8-12-18.8l0.1,0.1c2.8,10.9,16.4,15.9,27.5,13.7s20.4-9.3,29.9-15.5c9.5-6.1,20.6-11.5,31.7-9.4
				c11.6,2.2,20.2,12,26.4,22.1c5.8,9.4,10.3,19.5,13.5,30.1"/>
			<g>
				<path class="st9" d="M749.9,94.6c-3.5-20.5-20.8-35.8-41.3-37.5c-11.3-0.9-21.4,2.7-31.1,8c-9.8,5.4-19.7,11.8-31.3,11.4
					c-6.4-0.2-12.2-2.8-16-8.1c-3.4-4.7-5.4-10.5-8.8-15.2c-0.3,0.3-0.7,0.7-1,1c0.1,0,0.5,1.8,0.7,2.1c0.4,0.8,0.8,1.7,1.4,2.5
					c1.1,1.7,2.5,3.2,4.1,4.5c3.5,2.7,7.6,4.3,11.9,5c10.2,1.6,19.8-2.8,28.3-8c10.5-6.5,20.6-14.9,33.1-17
					c12.4-2.1,22.7,4.4,30.2,13.7c8.9,11,14.9,24.5,19,37.9c0.3,0.9,1.7,0.5,1.4-0.4c-3.6-11.9-8.8-23.5-15.8-33.8
					c-5.7-8.4-13.6-16.5-23.9-18.8c-25.4-5.5-41.4,22.7-65,25.1c-5.4,0.5-11.1-0.5-15.9-3.2c-2.4-1.3-4.5-3.2-6.1-5.4
					c-0.8-1.2-1.5-2.6-2-4c-0.2-0.6-0.2-1.1-0.8-1.4s-1.5,0.3-1,1c5.6,7.8,7.7,18.1,17.2,22.2c8.9,3.9,19.4,1.4,27.9-2.6
					c10.3-4.9,19.7-12.1,31.1-14.3c11.4-2.2,23.8,0.1,33.4,6.6c10,6.7,16.8,17.4,18.8,29.2C748.7,95.9,750.1,95.5,749.9,94.6
					L749.9,94.6z"/>
			</g>
		</g>
		<g>
			<path class="st17" d="M823.7,132.7c5.2-1.8,10.6-3.7,16.1-3.6c5.5,0.1,11.4,2.4,14.1,7.2c1.7,2.9,2,6.4,2.3,9.7
				c2.9,34.6,1.3,69.5,4.9,104c0.3,3,0.7,6.2,2.5,8.7c1.7,2.5,5.2,4.1,7.9,2.6c1.8-0.9,2.8-2.9,3.6-4.7c5.4-12.3,8.1-25.9,7.9-39.4
				c-3.8,1.1-8.2-0.5-10.5-3.9c18.9-4,38.6-4.1,57.5-0.5c-3.3,3.7-8.7,4.5-13.5,5.1c0.2,16.5,0,34-9,47.8c-6.5,10-17.6,17-29.4,18.1
				s-24.3-3.9-31.6-13.2c-8.5-10.9-9.7-25.8-9.3-39.6c0.8-27.3,6.3-54.5,5.2-81.8c-0.1-2.7-0.3-5.4-1.4-7.8c-2-4.1-6.5-6.5-11.1-7.1
				c-4.5-0.6-9.1,0.3-13.6,1.2L823.7,132.7z"/>
			<g>
				<path class="st17" d="M824.1,134.1c6.7-2.3,14-5,21-2.7c3,0.9,5.9,2.8,7.5,5.6c1.9,3.3,2,7.2,2.3,10.9
					c1.2,15.2,1.6,30.5,1.9,45.7c0.4,15.6,0.7,31.1,1.9,46.7c0.3,3.5,0.6,7,1,10.5c0.4,3.2,0.9,6.5,3,9.1c2.8,3.6,8.1,4.8,11.4,1.2
					c2.2-2.4,3.3-6.1,4.5-9.2c1.3-3.7,2.5-7.4,3.4-11.2c1.8-7.7,2.6-15.7,2.5-23.6c0-1-0.9-1.7-1.9-1.4c-3.3,0.8-6.8-0.4-8.8-3.2
					c-0.3,0.7-0.6,1.4-0.9,2.2c18.7-3.9,38-4,56.8-0.5c-0.2-0.8-0.4-1.6-0.6-2.5c-3.2,3.5-8.1,4.1-12.5,4.6
					c-0.8,0.1-1.5,0.6-1.5,1.5c0.2,17.5,0.2,37.6-12.2,51.5c-11.3,12.7-30,17.1-45.2,8.7c-16.2-9-19.3-27.8-19-44.7
					c0.3-20.7,3.6-41.3,4.9-62c0.4-5.8,0.6-11.6,0.5-17.3c0-4.8,0.3-10.4-2.4-14.6c-5.6-8.6-17-7.1-25.6-5.3
					c0.2,0.9,0.5,1.9,0.8,2.9C819.2,136,821.6,135,824.1,134.1c1.7-0.7,1-3.6-0.8-2.9c-2.5,1-4.9,1.9-7.4,2.9
					c-1.7,0.7-1.1,3.3,0.8,2.9c5.1-1,10.5-2.2,15.6-0.6c5.1,1.6,7.9,5.3,8.4,10.6c0.9,10.6,0.1,21.5-0.8,32.1
					c-1.7,20.5-5.2,41.2-4.3,61.9c0.8,16.6,6.6,33.5,22.7,40.9c15.1,6.9,32.6,3.3,44.4-8.2c14.9-14.4,15.3-36.4,15.1-55.8
					c-0.5,0.5-1,1-1.5,1.5c5.3-0.6,10.8-1.4,14.6-5.5c0.7-0.7,0.5-2.3-0.6-2.5c-19.3-3.6-39.1-3.4-58.3,0.5
					c-0.9,0.2-1.4,1.4-0.9,2.2c2.8,3.9,7.4,5.7,12.1,4.5c-0.6-0.5-1.2-0.9-1.9-1.4c0.1,7.1-0.5,14.1-2,21
					c-1.4,6.5-3.2,13.7-6.6,19.4c-1.7,3.1-4.9,3.5-7.5,1c-2.7-2.7-2.8-7.1-3.1-10.6c-0.7-7.3-1.2-14.5-1.6-21.8
					c-0.7-14.8-0.9-29.5-1.3-44.3c-0.2-7.5-0.5-14.9-0.8-22.4c-0.4-6.6-0.2-13.8-1.9-20.2c-1.6-5.9-6.3-9.8-12.2-11.2
					c-7.2-1.7-14.5,0.8-21.2,3.1C821.5,131.8,822.3,134.7,824.1,134.1z"/>
			</g>
		</g>
		
			<ellipse transform="matrix(1.837723e-03 -1 1 1.837723e-03 680.4083 1027.1207)" class="st18" cx="854.7" cy="172.7" rx="5.6" ry="5.6"/>
		
			<ellipse transform="matrix(0.9462 -0.3236 0.3236 0.9462 -14.6568 276.9875)" class="st3" cx="825.6" cy="182.6" rx="32.8" ry="11.4"/>
		<g>
			<path d="M811.8,104.2c1.8,5.9,3.8,11.7,6,17.5c0.6,1.7,1.4,3.5,3,4.4c1.2,0.7,2.7,0.7,4,0.7c1.7,0,3.6,0,5.1-0.8
				c2.1-1.1,3.3-3.6,3.4-6c0.2-2.4-0.5-4.8-1.2-7.1c-1.2-4.3-2.5-8.6-3.7-12.8c-0.3-1-0.8-2.2-1.8-2.4c-0.4-0.1-0.8,0-1.2,0.2
				c-4,1.3-8,2.6-11.9,3.8l5-1.3c-14.6,7-29.8,13-45.2,17.9c-1.9,0.6-4,1.2-6,1.3c-1.6,0-3.1-0.3-4.7-0.5
				c-6.2-1.1-12.4-2.2-18.6-3.3h-0.2c-0.6,2.4-1,5.6,1.1,7c0.6,0.4,1.4,0.6,2.2,0.7c6.3,1.3,12.5,2.6,18.8,3.9l-1.2-7.2
				c0.8,4.9,2.6,9.5,4.9,14c1.9,3.8,4.2,7.7,8.1,9.5c1.9,0.9,4.1,1.2,6.2,1.2c7.7,0.1,16.2-4.2,17.9-11.7c1-4.3-0.3-8.7-1.6-13
				c-1-3.2-2-6.4-2.9-9.6l2.3,8.4c1-2.9,3.6-5.3,6.6-6.1c3-0.8,6.4,0,8.7,2.1"/>
			<g>
				<path d="M811.1,104.2c1.3,4.1,2.7,8.2,4.1,12.3c1,2.9,1.8,6.8,4,9.1c2,2,5.2,2,7.9,1.7c2.8-0.3,5.1-1.6,6.2-4.3
					c1.3-3,0.7-6.2-0.1-9.2c-1.1-4.1-2.4-8.2-3.5-12.3c-0.6-2-1.1-5.1-3.9-4.7c-2,0.3-4.2,1.3-6.1,1.9c-2.1,0.7-4.3,1.4-6.4,2.1
					c-0.9,0.3-0.5,1.7,0.4,1.4c1.7-0.4,3.4-0.9,5-1.3c-0.2-0.4-0.4-0.9-0.6-1.3c-12.1,5.8-24.4,10.8-37.1,15.2c-2.9,1-5.9,2-8.8,2.9
					c-3.8,1.1-7,1-10.8,0.3c-3.3-0.6-6.5-1.1-9.8-1.7c-2.4-0.4-5.4-1.5-7.9-1.3c-0.3,0-0.6,0.2-0.7,0.5c-0.9,3.7-0.9,7.5,3.4,8.6
					c6.3,1.6,12.8,2.6,19.2,3.9c0.6,0.1,1-0.3,0.9-0.9c-0.4-2.4-0.8-4.8-1.2-7.2c-0.5,0.1-0.9,0.2-1.4,0.4c0.7,4.1,2.1,8,3.8,11.8
					c1.4,3.1,3,6.3,5.3,8.9c4.3,4.9,11.3,5.4,17.3,3.7c5.3-1.5,10.4-5.2,12-10.6c1-3.5,0.5-7.2-0.4-10.6c-1.1-4.4-2.6-8.7-4-13
					c-0.3-0.9-1.7-0.5-1.4,0.4c0.7,2.8,1.5,5.6,2.3,8.4c0.2,0.7,1.2,0.6,1.4,0c2.3-5.7,9.3-7.5,14.1-3.6c0.7,0.6,1.8-0.4,1-1
					c-5.7-4.6-13.8-2.5-16.6,4.3c0.5,0,0.9,0,1.4,0c-0.7-2.8-1.5-5.6-2.3-8.4c-0.5,0.1-0.9,0.2-1.4,0.4c1,3.3,2.1,6.7,3.1,10
					c1,3.4,2.1,7,1.7,10.6c-0.7,6.1-5.8,10.2-11.4,11.8c-6.4,1.9-13.1,0.8-17.1-4.9c-3.7-5.3-6.4-12-7.4-18.4
					c-0.1-0.9-1.6-0.5-1.4,0.4c0.4,2.4,0.8,4.8,1.2,7.2c0.3-0.3,0.6-0.6,0.9-0.9c-4.5-0.9-9.1-1.9-13.7-2.8
					c-2.1-0.4-4.9-0.6-6.8-1.6c-2.3-1.3-1.8-4-1.2-6.3c-0.2,0.2-0.5,0.3-0.7,0.5c1.3-0.1,2.9,0.5,4.2,0.7c1.7,0.3,3.4,0.6,5.1,0.9
					c3.4,0.6,6.8,1.2,10.2,1.8c6.3,1,12.2-1.6,18.1-3.6c12.8-4.4,25.3-9.5,37.4-15.3c0.8-0.4,0.2-1.6-0.6-1.3
					c-1.7,0.4-3.4,0.9-5,1.3c0.1,0.5,0.2,0.9,0.4,1.4c2.9-0.9,5.8-1.9,8.7-2.8c1.3-0.4,3.8-1.8,4.9-0.4c0.8,0.9,1,3.1,1.3,4.3
					c0.8,2.9,1.7,5.8,2.5,8.7c0.8,3,2.1,6.3,1.1,9.4c-1,3.5-3.7,4.5-7.1,4.5c-1.7,0-3.7,0-4.9-1.3c-1-1.1-1.5-2.7-2.1-4.1
					c-2.1-5.5-3.9-11-5.7-16.7C812.2,102.9,810.8,103.3,811.1,104.2L811.1,104.2z"/>
			</g>
		</g>
		
			<ellipse transform="matrix(1.837723e-03 -1 1 1.837723e-03 699.7667 1007.9156)" class="st18" cx="854.8" cy="153.4" rx="5.6" ry="5.6"/>
		
			<ellipse transform="matrix(1.837723e-03 -1 1 1.837723e-03 661.1504 1046.4257)" class="st18" cx="854.8" cy="192" rx="5.6" ry="5.6"/>
		
			<ellipse transform="matrix(1.837723e-03 -1 1 1.837723e-03 643.7772 1063.538)" class="st18" cx="854.6" cy="209.3" rx="5.6" ry="5.6"/>
		
			<ellipse transform="matrix(1.837723e-03 -1 1 1.837723e-03 627.3973 1079.8036)" class="st18" cx="854.6" cy="225.6" rx="5.6" ry="5.6"/>
		
			<ellipse transform="matrix(1.837723e-03 -1 1 1.837723e-03 612.1632 1097.1622)" class="st18" cx="855.7" cy="241.9" rx="5.6" ry="5.6"/>
		
			<ellipse transform="matrix(1.837723e-03 -1 1 1.837723e-03 601.3382 1118.8877)" class="st18" cx="861.1" cy="258.2" rx="5.6" ry="5.6"/>
	</g>
	<g>
		<g>
			<path d="M625,133.4c1.2-3.7-0.7-7.9-3.8-10.3s-7.1-3.4-11-4.1c-3.1-0.5-6.3-0.8-9.4-1c-2-0.1-4.3-0.1-5.9,1.2
				c-2.9,2.2-2.1,6.8,0,9.8c2.9,4,7.4,6.5,12.2,7.7s9.8,1.1,14.7,0.5c1.6-0.2,3.5-0.6,4.3-2c0.3-0.7,0.4-1.4,0.4-2.1
				c0.1-2.9-0.4-6.5-3.2-7.2"/>
			<g>
				<path class="st1" d="M626.2,133.7c2.1-7.4-4.4-13-11-14.9c-4.1-1.2-8.5-1.7-12.8-2c-3.3-0.2-7.4-0.4-9.6,2.5
					c-4.1,5.4,1.6,12.3,6.1,15.3c6.7,4.4,15.6,4.8,23.4,3.8c3.9-0.5,5.5-2.6,5.4-6.5c-0.1-3-1-6.3-4.2-7.4c-1.6-0.5-2.3,2-0.7,2.5
					c2.7,0.9,3.4,7.2,0.8,8.4c-1.5,0.6-3.6,0.6-5.2,0.7c-1.9,0.1-3.8,0.1-5.8,0c-6.5-0.4-14.4-3-17.5-9.1c-1.5-2.9-1.5-6.9,2.4-7.6
					c3.7-0.7,8.5,0.2,12.2,0.8c6.3,1.1,16.2,4.5,13.9,12.7C623.2,134.7,625.8,135.3,626.2,133.7L626.2,133.7z"/>
			</g>
		</g>
		<g>
			<path class="st2" d="M586.4,121.6c-1.9,1.1-2.8,3.4-2.6,5.5s1.3,3.9,2.5,5.5c1.6,2.3,3.6,4.5,6.2,5.7c5.8,2.7,13.9-0.7,16.5-6.5
				c2.5-5.8-0.9-12.8-6.9-14.9s-13.8,0.7-17.3,6"/>
		</g>
		
			<ellipse transform="matrix(1.837718e-03 -1 1 1.837718e-03 450.7316 750.0478)" class="st19" cx="601.1" cy="149.2" rx="12.4" ry="12.6"/>
		<g>
			<path class="st5" d="M593.6,181.4c1.6-8.5-1.6-17.7-8.2-23.4c-0.8-0.7-2-1.4-3-0.9l9.9,9.1c2.8-9.1-0.5-19.6-7.9-25.6l6.1,6.4
				l-0.6-0.3c2-3.5,4.1-6.9,6.1-10.4c3.4-5.7,6.8-11.6,8.1-18l-5.7,16.3c3.7-7.8,7.5-16,7-24.6c-0.8-11.9-10.3-22.4-21.8-26.1
				C572,80,559,82.2,548.4,88c-10.6,5.7-19.2,14.7-26.3,24.5c-16.8,23-25.9,51.7-23.6,79.8c1.1,13.5,5,27.2,14.1,37.4
				c6.1,6.9,14.2,11.8,22.8,15.4c9.3,4,19.3,6.6,29.4,6.3c10.1-0.3,20.3-3.8,27.5-10.8c11.7-11.3,13.5-29.7,8.4-44.9
				c-2.5-7.5-6.7-14.6-12.8-19.6c-6.2-5-14.5-7.7-22.4-6.2"/>
			<g>
				<path class="st5" d="M594.2,181.6c0.9-5.2,0.2-10.5-2-15.4c-1.1-2.5-2.6-4.8-4.5-6.8c-1.4-1.5-3.3-3.7-5.5-2.9
					c-0.4,0.2-0.7,0.7-0.3,1.1c3.3,3,6.6,6,9.9,9.1c0.4,0.3,1,0.2,1.1-0.3c2.7-9.4-0.5-19.9-8.1-26.2c-0.7-0.5-1.5,0.3-0.9,0.9
					c2,2.1,4.1,4.3,6.1,6.4c0.3-0.3,0.5-0.7,0.8-1c-0.2-0.1-0.4-0.2-0.6-0.3c0.1,0.3,0.2,0.6,0.2,0.9c5.3-9,12-18.2,14.2-28.6
					c0.2-0.8-1-1.1-1.3-0.3c-1.9,5.4-3.8,10.8-5.7,16.3c-0.2,0.7,0.9,1.2,1.2,0.5c3.4-7.2,6.9-14.6,7.1-22.6
					c0.1-6.5-2.1-12.7-6.2-17.8c-8.8-11.2-23.6-15-37.4-12.2c-15.2,3.1-27.6,13.2-37.1,24.9c-9.7,12-17.2,25.8-22,40.3
					c-4.8,14.7-6.9,30.5-5.5,46c1.3,14.6,6.1,29.5,17.2,39.9c5.6,5.2,12.2,9.1,19.2,12.1c7.5,3.3,15.6,5.8,23.8,6.5
					c14.3,1.2,29.6-3.4,38.3-15.2c7.8-10.7,9-25,5.8-37.5c-3.4-13.4-12.5-26.8-27-29.8c-3.3-0.7-6.7-0.7-10.1-0.1
					c-0.8,0.2-0.5,1.4,0.4,1.3c15.7-2.9,28.2,9.5,33.4,22.7c4.7,11.7,5.2,25.6-0.3,37.2c-6.1,12.7-19.3,19.7-33.3,20.3
					c-15.2,0.7-31.2-5.1-43.5-13.7c-24.8-17.4-26.3-52.2-20.1-79c3.2-14,9-27.4,16.9-39.5c7.7-12,17.5-23.4,30.4-30.2
					c12.7-6.7,29-8.5,41.6-0.6c5.5,3.4,10,8.5,12.4,14.5c2.7,6.8,1.9,14-0.4,20.8c-1.3,3.8-3,7.5-4.7,11.1c0.4,0.2,0.8,0.3,1.2,0.5
					c1.9-5.4,3.8-10.8,5.7-16.3c-0.4-0.1-0.8-0.2-1.3-0.3c-2.1,10.2-8.9,19.3-14.1,28.3c-0.2,0.3-0.1,0.7,0.2,0.9
					c0.2,0.1,0.4,0.2,0.6,0.3c0.7,0.3,1.3-0.5,0.8-1c-2-2.1-4.1-4.3-6.1-6.4c-0.3,0.3-0.6,0.6-0.9,0.9c7.2,6.1,10.3,15.9,7.7,25
					c0.4-0.1,0.7-0.2,1.1-0.3c-3.3-3-6.6-6-9.9-9.1c-0.1,0.3-0.2,0.7-0.3,1.1c0.7-0.2,2.3,0.7,2.9,1.1c0.4,0.3,0.8,0.8,1.2,1.2
					c0.8,0.9,1.5,1.7,2.2,2.7c1.2,1.8,2.2,3.7,3,5.7c1.5,4.1,1.9,8.5,1.1,12.7C592.8,182,594.1,182.4,594.2,181.6L594.2,181.6z"/>
			</g>
		</g>
		<g>
			<path class="st2" d="M550.3,114.6c-1.9,1.1-2.8,3.4-2.6,5.5c0.2,2,1.3,3.9,2.5,5.5c1.6,2.3,3.6,4.5,6.2,5.7
				c5.8,2.7,13.9-0.7,16.5-6.5c2.5-5.8-0.9-12.8-6.9-14.9s-13.8,0.7-17.3,6"/>
		</g>
		<path class="st3" d="M576.2,161.9c1-5.5,14.7-7.7,30.6-5s28.2,9.3,27.2,14.8s-14.7,7.7-30.6,5C587.4,174,575.3,167.3,576.2,161.9z
			"/>
		<g>
			<path d="M534.5,108.6c-1.3-3.6-5.5-5.8-9.4-5.8c-4-0.1-7.7,1.6-11.2,3.4c-2.8,1.5-5.5,3.1-8.1,4.9c-1.7,1.2-3.4,2.6-3.9,4.5
				c-0.9,3.5,2.6,6.6,6.1,7.7c4.7,1.4,9.9,0.7,14.4-1.3s8.4-5.1,12-8.4c1.2-1.1,2.4-2.6,2.1-4.2c-0.1-0.7-0.6-1.3-1-1.9
				c-1.7-2.3-4.4-4.9-7-3.7"/>
			<g>
				<path class="st1" d="M535.1,108.4c-2.5-6.2-9.9-7.2-15.6-5.4c-3.8,1.2-7.4,3.3-10.7,5.4c-2.6,1.6-6.1,3.5-7.3,6.4
					c-2.7,6.7,6.9,9.9,11.8,9.9c7.7-0.1,14.4-4.3,19.9-9.2c2.5-2.2,5.3-4.7,3-8.1c-1.8-2.6-4.6-5.5-8-4.4c-0.8,0.3-0.4,1.5,0.4,1.3
					c2.3-0.8,4.2,0.9,5.6,2.5c0.8,1,2,2.3,1.6,3.6c-0.2,1-1.2,1.9-1.9,2.6c-2.3,2.4-5.1,4.5-7.9,6.3c-5.7,3.5-14.6,6.1-20.6,1.9
					c-1.5-1-2.9-2.6-2.9-4.5c0-2.3,2-3.9,3.8-5.2c2.8-1.9,5.7-3.7,8.8-5.3c5.7-2.9,15.7-5.4,19,2.4
					C534.2,109.5,535.5,109.2,535.1,108.4L535.1,108.4z"/>
			</g>
		</g>
		<g>
			<path class="st6" d="M595.4,134.3c-0.7,0.3-0.9,1.1-0.9,1.8c0.1,0.7,0.4,1.3,0.8,1.8c0.5,0.7,1.2,1.5,2.1,1.9
				c1.9,0.9,4.6-0.3,5.5-2.2s-0.3-4.3-2.3-4.9c-2-0.7-4.6,0.3-5.8,2"/>
			<g>
				<path class="st6" d="M594.7,133.2c-2.8,2.1-1.1,5.7,1.4,7.4c2.4,1.6,5.9,0.7,7.5-1.6c1.7-2.4,0.7-5.9-1.9-7.2
					c-2.8-1.5-6.2-0.1-8,2.3c-1,1.3,1.3,2.6,2.3,1.3c0.8-1.1,2.3-1.7,3.6-1.6c1.5,0.2,2.7,1.8,2.1,3.3c-0.5,1.1-1.9,1.9-3.1,1.7
					c-0.9-0.1-3.6-2.5-2.4-3.3C597.4,134.4,596,132.2,594.7,133.2L594.7,133.2z"/>
			</g>
		</g>
		<g>
			<path class="st6" d="M561.9,126.9c-0.7,0.3-0.9,1.1-0.9,1.8c0.1,0.7,0.4,1.3,0.8,1.8c0.5,0.7,1.2,1.5,2.1,1.9
				c1.9,0.9,4.6-0.3,5.5-2.2c0.8-1.9-0.3-4.3-2.3-4.9c-2-0.7-4.6,0.3-5.8,2"/>
			<g>
				<path class="st6" d="M561.2,125.8c-2.8,2.1-1.1,5.7,1.4,7.4c2.4,1.6,5.9,0.7,7.5-1.6c1.7-2.4,0.7-5.9-1.9-7.2
					c-2.8-1.5-6.2-0.1-8,2.3c-1,1.3,1.3,2.6,2.3,1.3c0.8-1.1,2.3-1.7,3.6-1.6c1.5,0.2,2.7,1.8,2.1,3.3c-0.5,1.1-1.9,1.9-3.1,1.7
					c-0.9-0.1-3.6-2.5-2.4-3.3C563.9,127,562.5,124.7,561.2,125.8L561.2,125.8z"/>
			</g>
		</g>
		<g>
			<path d="M588.7,139.7c-3.1-1.9-6.8-2.9-10.5-3c-0.1,2.8,0.4,5.6,1.5,8.2c0.2,0.5,0.4,1,0.9,1.2c0.7,0.4,1.7,0,2.5-0.4
				c2.4-1.3,4.5-3.1,6.4-5.1"/>
			<g>
				<path class="st1" d="M589.4,138.5c-3.4-2-7.2-3-11.1-3.2c-0.7,0-1.3,0.6-1.3,1.3c0,2.3,0.2,4.6,0.9,6.8c0.4,1.4,0.9,3.3,2.5,4
					c1.7,0.7,3.4-0.4,4.8-1.3c2-1.3,3.8-2.8,5.3-4.5c1.1-1.2-0.7-3.1-1.8-1.8c-0.8,0.9-1.7,1.8-2.7,2.6c-0.9,0.8-2.8,2.5-4.1,2.4
					c-1-0.1-1-0.6-1.3-1.6c-0.2-0.6-0.4-1.2-0.5-1.9c-0.3-1.5-0.4-3-0.4-4.6c-0.4,0.4-0.9,0.9-1.3,1.3c3.5,0.1,6.8,1.1,9.8,2.8
					C589.5,141.6,590.8,139.4,589.4,138.5L589.4,138.5z"/>
			</g>
		</g>
		<g>
			<path d="M582.5,141.9c-4-1.7-8.9-1.5-13.5,0.5c-2.1,0.9-4.1,2.2-5.7,4.1s-2.4,4.3-1.9,6.3c0.7,2.8,3.9,3.8,6.9,3s5.6-3,8-5.3
				c2.4-2.4,4.6-4.9,6.6-7.7c0.2-0.3,0.4-0.6,0.7-0.7c0.3-0.1,0.6,0,0.9,0c4.5,1.3,8.9,3.9,10.2,8.6c0.5,2,0.3,4.7-1.6,6.2
				c-1.1,0.9-2.5,1.1-3.7,0.9c-2.9-0.4-4.7-3-5.4-6c-0.7-2.9-0.3-6.2,0.1-9.4"/>
			<g>
				<path class="st1" d="M582.8,140.7c-6-2.4-13.4-1-18.4,2.9c-3.8,3-7.1,10.2-1.3,13.1c5.9,3,12.1-3.1,15.8-6.9
					c1.2-1.3,2.4-2.7,3.5-4.2c0.4-0.5,0.9-1.5,1.4-1.9c0.6-0.4,0.1-0.3,0.9-0.2c0.4,0,1,0.3,1.5,0.5c3,1.2,6,3.2,7,6.4
					c0.6,1.6,0.6,3.8-0.7,5.2c-1.6,1.7-4.2,1-5.6-0.5c-3-3.2-2-8.6-1.6-12.6c0.2-1.6-2.5-1.7-2.6,0c-0.6,5.5-1.3,14.6,5.7,16.4
					c6.5,1.7,9-5.6,6.8-10.4c-1.2-2.7-3.5-4.7-6.1-6c-2-1-5.2-2.8-7.1-0.9c-1.3,1.3-2.3,3.1-3.6,4.5c-1.4,1.6-2.8,3.1-4.3,4.5
					c-2.4,2.2-6.9,5.8-10.3,3.5c-4.4-2.9,1.7-8.7,4.4-10.1c4.2-2.2,9.3-2.7,13.7-1C583.7,143.8,584.4,141.3,582.8,140.7L582.8,140.7
					z"/>
			</g>
		</g>
		<g>
			<path class="st7" d="M584.5,149.6c-0.5-2.4-3.7-3.8-5.8-2.7c-0.9,0.5-1.5,1.3-2.2,2.1c-2.8,3.7-4.8,8.1-5.8,12.6
				c-0.6,2.6-0.5,5.9,2,7.1c2.5,1.1,5.2-0.9,7-2.9c2.3-2.5,4.6-5.2,5.6-8.4c1.1-3.2,0.8-7-1.5-9.5c-0.7-0.8-1.7-1.4-2.7-1.3
				c-0.7,0.1-1.3,0.5-1.9,1c-3,2.6-5.3,6.1-6.3,9.9"/>
			<g>
				<path class="st7" d="M585.8,149.2c-0.7-2.3-2.7-3.9-5.1-4c-3-0.1-4.7,2.2-6.2,4.3c-2,2.9-3.5,6.2-4.5,9.6
					c-0.8,2.6-1.4,5.5-0.3,8.1c1,2.3,3.4,3.5,5.9,2.9c3.2-0.8,5.6-3.8,7.5-6.2c3.6-4.5,6.3-11.4,2.1-16.5
					c-5.6-6.9-12.2,5.1-13.5,9.6c-0.4,1.6,2.1,2.3,2.6,0.7c0.8-2.7,2-5.2,3.9-7.4c0.9-1,2.4-2.8,4-2.3c1.2,0.3,2,2.6,2.2,3.6
					c1.2,5.3-2.8,10.7-6.6,14.1c-1,0.9-2.6,2.2-4.1,1.8c-1.4-0.3-1.8-1.8-1.9-3c-0.2-2.3,0.7-4.7,1.5-6.9c1-2.6,2.3-5.2,4-7.5
					c0.7-1,1.6-2.3,3-2.5c1.4-0.1,2.7,0.8,3,2.1C583.7,151.5,586.3,150.8,585.8,149.2L585.8,149.2z"/>
			</g>
		</g>
		<g>
			<g>
				<path d="M564.7,83.2c0.9-2.5,10-1.8,20.3,1.6c10.4,3.4,18.1,8.1,17.2,10.6c-0.9,2.5-10,1.8-20.3-1.6S563.8,85.7,564.7,83.2z"/>
				<path d="M573,59.7c0.9-2.5,10-1.8,20.3,1.6c10.4,3.4,18.1,8.1,17.2,10.6s-10,1.8-20.3-1.6C579.8,66.9,572.1,62.1,573,59.7z"/>
				<g>
					<g>
						<path class="st0" d="M575.1,61.2c0.8,0,0.8-1.3,0-1.3C574.2,59.9,574.2,61.2,575.1,61.2L575.1,61.2z"/>
					</g>
				</g>
				<g>
					<path d="M572.8,60.1c0.5,0.2,0.4-1-0.1-0.9c-0.6,0-0.8,0.7-1,1.2c-2.1,7.5-4.3,15.1-6.4,22.6c-0.1,0.4-0.2,0.8-0.1,1.2
						c0.2,0.8,1,1.2,1.8,1.4c11.4,4.2,23.5,7,35.7,8.1c3.9-6.5,6.8-13.6,8.4-20.9c0.2-0.8,0.3-1.6,0-2.3c-0.5-1-1.7-1.2-2.8-1.4
						c-11.9-2.1-23.7-5-35.1-8.7c-0.6-0.2-1.3-0.3-1.6,0.2s0.9,0.9,0.7,0.3L572.8,60.1z"/>
					<g>
						<path d="M572.8,60.8c1-0.1,1.5-1.4,0.5-2c-2-1.3-2.7,3.2-2.9,3.9c-1.1,3.8-2.1,7.5-3.2,11.3c-0.5,1.7-1,3.5-1.5,5.2
							c-0.4,1.4-1.3,3.2-1.2,4.7c0.1,2.3,3.6,2.9,5.3,3.5c3.6,1.2,7.2,2.3,10.9,3.3c7.2,1.8,14.5,3.1,21.9,3.8
							c0.2,0,0.4-0.1,0.6-0.3c3.6-6.1,6.4-12.7,8.1-19.6c0.5-2,1.2-4.4-1.1-5.5c-1.1-0.6-2.6-0.6-3.8-0.9c-1.9-0.4-3.9-0.7-5.8-1.1
							c-7.6-1.6-15.1-3.5-22.4-5.7c-1.7-0.5-3.6-1.4-5.3-1.6c-0.6-0.1-1.4-0.1-1.9,0.5c-0.7,1,0.3,1.8,1.4,1.6
							c0.3,0,0.4-0.3,0.5-0.6c0-0.2,0.4-0.6,0.5-0.8c0.4-0.7-0.7-1.4-1.1-0.7c-0.3,0.5-0.6,0.9-0.7,1.5c0.2-0.2,0.3-0.4,0.5-0.6
							c0.1,0,1.7,0.7,1.8,0.8c0.4,0.1,0.8,0.3,1.2,0.4c0.9,0.3,1.9,0.6,2.8,0.9c2,0.6,4.1,1.2,6.1,1.7c3.9,1.1,7.9,2.1,11.9,3
							s8,1.7,12,2.4c1.2,0.2,2.6,0.6,2.9,2c0.2,0.8-0.4,2.1-0.6,2.9c-0.5,1.9-1,3.8-1.7,5.6c-1.3,3.8-2.9,7.4-4.8,10.9
							c-0.4,0.8-0.7,1.7-1.6,2c-0.7,0.2-2.1-0.2-2.9-0.3c-2.2-0.3-4.5-0.6-6.7-1c-7.8-1.3-15.4-3.3-22.9-5.9
							c-1.5-0.5-3.1-0.9-3.5-2.7c-0.2-0.8,0.7-2.4,0.9-3.3c0.6-2.2,1.2-4.3,1.8-6.5c0.7-2.3,1.3-4.6,2-6.9c0.2-0.8,1.6-7.2,2.1-7.2
							C572,59.6,572,60.9,572.8,60.8z"/>
					</g>
				</g>
			</g>
			<path class="st8" d="M583.7,88.5c1.6-3,9.6-1.9,17.9,2.3c8.3,4.3,13.8,10.1,12.3,13.1s-9.6,1.9-17.9-2.3S582.1,91.5,583.7,88.5z"
				/>
		</g>
		<g>
			<path class="st9" d="M662.7,125.9c3.4-4.3,7-8.9,7.9-14.3s-1.8-11.8-7.2-13.2c-4.7-1.2-9.6,1.7-14.4,1.3
				c-5.2-0.4-9.3-4.6-12.5-8.7c-3.3-4-6.7-8.5-11.7-10.1c-4.7-1.5-10,0.1-14,2.9c-4,2.9-7,6.9-9.9,10.9c5-6.8,16-8.4,22.8-3.2
				c5.2,4,7.6,10.9,13.2,14.3c2.2,1.3,4.8,2,7.3,2c3.1,0,6.1-1.1,9.2-1.6c3-0.5,6.5-0.2,8.8,1.8c2.1,2,2.5,5.2,2.4,8.1
				c-0.2,2.9-0.9,5.8-0.7,8.7L662.7,125.9z"/>
			<g>
				<path class="st9" d="M663.2,126.4c4.3-5.4,9.2-11.7,8.1-19c-0.9-6.2-5.7-10.6-12.2-9.9c-4.2,0.5-8.3,2.3-12.5,0.9
					c-4.1-1.4-7-4.8-9.6-8c-4.4-5.4-9.2-11.3-17-10.8c-9,0.6-14.9,8-19.6,14.7c-0.5,0.7,0.7,1.3,1.1,0.7c3.3-4.3,8.8-6.4,14.1-5.9
					c6.3,0.5,10.1,4.8,13.6,9.6c3.1,4.2,6.4,8.3,11.8,9.4c6.3,1.4,12.7-3.3,18.7-0.8c4,1.6,4.4,6,4.1,9.6c-0.2,2-0.6,3.9-0.7,5.9
					c0,0.6,0.2,1.3,0,1.8c-0.1,0.3-0.6,0.6-0.8,0.8C661.6,126.1,662.6,127,663.2,126.4c0.4-0.4,1-0.8,1.2-1.3s0-1.3,0-1.8
					c0-1,0.1-2.1,0.3-3.2c0.4-3.3,1-6.6-0.2-9.8c-2.6-6.6-10.3-5-15.8-3.8c-4.5,1-9,0.7-12.8-2.3c-2.6-2.1-4.5-4.9-6.4-7.6
					c-3.4-4.6-7.3-8.2-13.2-8.9c-6-0.7-12.2,1.7-15.8,6.5c0.4,0.2,0.7,0.4,1.1,0.7c4.2-5.9,9.2-12.4,16.9-13.8
					c7.9-1.5,12.8,4.3,17.2,9.7c3.7,4.6,8.4,9.6,14.9,9.4c3.4-0.1,6.7-1.5,10.1-1.6c3.7-0.1,6.6,1.8,8.2,5
					c3.9,7.9-1.8,15.7-6.6,21.7C661.7,126.1,662.7,127,663.2,126.4z"/>
			</g>
		</g>
		<g>
			<g>
				<path class="st20" d="M682.6,210.8c-3.4-4.6-7.5-8.6-12.3-11.7c-0.7,1.6-1.4,3.2-2,4.8c2.8,0.6,5.2,2,7,4.2c1-1.3,2-2.6,3-3.8
					c-2.1-0.7-4-1.7-5.7-3.1c-1.1,1.3-2.1,2.7-3.2,4.1c3.3,2.4,6.3,5.3,8.8,8.5c1.2-1.2,2.4-2.4,3.6-3.5c-0.7-0.3-1.1-0.6-1-1.3
					c-1.5,0.4-3,0.8-4.4,1.1c1.5,1.9,2.2,4.4,1.7,6.8c1.7,0.2,3.5,0.5,5.2,0.7c0-0.7,0-1.2,0.2-1.8c0.3-1.1,1.4-1.4,0-2
					s-0.6,0.3-0.8,1.3c-0.1,0.8-0.4,1.5-0.7,2.3c1.5,0.9,3,1.7,4.6,2.7c1.2-2.4,2.6-4.6,4.4-6.6c1.9-2.2-0.5-5.6-3.2-4.1
					c-1.6,0.9-3.1,1.7-4.7,2.6c1.2,1.2,2.4,2.4,3.6,3.6c2.3-5.1,5.7-9.4,10-13c-1.5-0.8-3-1.7-4.4-2.5c-1.3,3.4-3.3,6.4-5.9,9
					c1.4,1,2.8,2.1,4.1,3.2c1.6-2.9,3.6-5.4,6.1-7.6c-1.2-1.2-2.5-2.5-3.7-3.7c-2.7,2.6-5.8,4.6-9.4,6.1c1.1,1.3,2.1,2.7,3.2,4.1
					c1.9-2.3,3.9-4.6,5.9-6.9c1.5-1.8,0.1-5.4-2.5-4.3c-3.1,1.2-6.3,2.4-9.4,3.5c0.8,1.4,1.7,2.9,2.5,4.3c2-1.8,4.1-3.5,6.1-5.3
					c1.7-1.5,0.4-4.6-1.8-4.4c-4.7,0.3-9.2,1.2-13.5,2.8c-2.3,0.9-2.7,4.3,0,5c3.2,0.8,6-0.8,7.1-3.8c0.4-1-0.2-2.5-1.2-3
					c-4.1-1.7-8.2-2.7-12.6-3.1c-3.4-0.2-3.3,4.9,0,5.2c1.5,0.2,3,0,4.5-0.3c2.1-0.4,2.7-3.9,0.6-4.8c-1.4-0.6-2.9-1.2-4.3-1.9
					c-2.6-1.1-5.5,1.9-3.2,4.1c1.2,1.2,2.6,1.7,4.3,1.7c3,0,3.6-4.3,0.7-5.1c-1.1-0.3-2.2-0.6-3.4-1c-3.3-0.9-4.6,3.9-1.4,5
					c3.2,1.1,6.5,1.5,9.8,1.1c1.9-0.2,3.4-2.1,2.3-3.9c-1.3-2.3-4.5-2.7-6.4-0.8c-1.5,1.6-0.6,3.6,1.1,4.3c4.9,2,10,3.5,15.3,4.3
					c0.2-1.7,0.5-3.4,0.7-5.1c-3.7-0.4-7.4-0.8-11.1-1.1c-3.2-0.3-3.3,4.2-0.7,5.1c4.2,1.6,8.5,2.4,13,2.7c3,0.2,3.5-4.3,0.7-5.1
					c-3.2-1-6.5-1.4-9.9-1.3c-2.2,0-3.7,2.9-1.9,4.4c0.9,0.8,1.8,1.5,2.6,2.3c1.1-1.3,2.1-2.7,3.2-4.1
					c-12.4-6.7-24.8-13.3-37.3-19.9c-1.8-1-3.6-1.9-5.3-2.9c-0.9,1.5-1.8,3-2.7,4.5c9.2,4.9,17.5,11.1,24.7,18.6
					c3.5,3.7,6.8,7.6,9.6,11.9c2.9,4.2,6.6,9.5,5.6,14.8c-0.6,2.8,3.2,4.6,4.8,2c6.5-10.6,13.1-21.1,19.6-31.7c1-1.6-0.3-4-2.3-3.9
					c-11.9,0.7-23.7-1-34.9-5c-10-3.6-19.2-9.2-28.5-14.4c-9.1-5.1-18.4-10.1-28.5-12.8c-9.2-2.5-23.3-4-27.2,7.2
					c-1.7,5.1,1.1,9.4,4.3,13.2c3.3,4,7,7.8,11,11.2c7.8,6.8,16.6,12.5,26.2,16.7c8.5,3.8,20.7,8.5,27.9-0.3c5.7-7,4.5-17-0.5-23.9
					c-3.4-4.7-8.1-8.3-12.8-11.6c-5.4-3.7-10.9-7.3-16.5-10.7c-11.8-7.2-24-13.7-36.1-20.5c-3-1.7-5.6,2.9-2.7,4.5
					c9.7,5.4,19.4,10.7,29,16.2c9.2,5.3,18.4,10.7,26.8,17.2c6.4,4.8,13,11.9,11.1,20.5c-0.8,3.3-2.7,6.5-6.1,7.7
					c-4.8,1.6-10.2-0.7-14.6-2.4c-8.8-3.5-17.1-8.4-24.5-14.2c-3.7-3-7.3-6.2-10.5-9.7c-2.6-2.7-7.6-7.1-7-11.2
					c0.7-4.7,6.1-6.5,10.2-6.5c4.8,0,9.7,1.3,14.1,2.8c9.1,3,17.5,7.7,25.8,12.4c9.2,5.3,18.5,10.6,28.6,14.1
					c11.3,4,23.5,5.6,35.5,4.9c-0.7-1.3-1.5-2.6-2.3-3.9c-6.5,10.6-13.1,21.1-19.6,31.7c1.6,0.7,3.2,1.4,4.8,2
					c1.2-6-1.3-11.5-4.5-16.4c-3.1-4.9-6.6-9.5-10.6-13.8c-7.7-8.5-17-15.6-27.3-21c-3-1.6-5.7,2.9-2.7,4.5
					c12.4,6.7,24.8,13.3,37.3,19.9c1.8,1,3.6,1.9,5.3,2.9c2.6,1.3,5.6-2,3.2-4.1c-0.9-0.8-1.8-1.5-2.6-2.3c-0.6,1.5-1.2,2.9-1.9,4.4
					c2.9-0.1,5.7,0.3,8.5,1.1c0.2-1.7,0.5-3.4,0.7-5.1c-4-0.2-7.8-1.1-11.6-2.5c-0.2,1.7-0.5,3.4-0.7,5.1c3.7,0.4,7.4,0.8,11.1,1.1
					c3,0.3,3.7-4.6,0.7-5.1c-5.3-0.8-10.4-2.3-15.3-4.3c0.4,1.4,0.8,2.9,1.1,4.3c-0.7-0.1-1.3-0.2-1.9-0.3c0.8-1.3,1.5-2.6,2.3-3.9
					c-3,0.3-5.6,0-8.4-1c-0.5,1.7-0.9,3.3-1.4,5c1.1,0.3,2.2,0.6,3.4,1c0.2-1.7,0.5-3.4,0.7-5.1c-0.3,0.1-0.4,0-0.6-0.2
					c-1.1,1.3-2.1,2.7-3.2,4.1c1.4,0.6,2.9,1.2,4.3,1.9c0.2-1.6,0.4-3.2,0.6-4.8c-1.1,0.2-2,0.2-2.9,0.1v5.2c3.3,0.2,6.6,1,9.8,2.4
					c-0.4-1-0.8-2-1.2-3c-0.1,0.3-0.4,0.2-0.6,0.2v5c3.9-1.5,7.9-2.4,12.1-2.6c-0.6-1.5-1.2-3-1.8-4.4c-2,1.8-4.1,3.5-6.1,5.3
					c-1.9,1.6,0.1,5.3,2.5,4.3c3.1-1.2,6.3-2.4,9.4-3.5c-0.8-1.4-1.7-2.9-2.5-4.3c-1.9,2.3-3.9,4.6-5.9,6.9c-2,2.3,0.4,5.3,3.2,4.1
					c3.9-1.7,7.4-4.1,10.4-7c2.5-2.3-1.2-5.9-3.7-3.7c-2.8,2.5-5.1,5.4-6.9,8.7c-1.4,2.6,1.9,5.3,4.1,3.2c3.3-3.2,5.7-7,7.3-11.2
					c1-2.7-2.6-4-4.4-2.5c-4.7,3.8-8.3,8.7-10.8,14.1c-1,2.3,1.1,4.9,3.6,3.6c1.6-0.9,3.1-1.7,4.7-2.6c-1.1-1.3-2.1-2.7-3.2-4.1
					c-2.1,2.3-3.8,4.9-5.2,7.6c-1.5,3,2.9,5.6,4.6,2.7c1.6-2.9,2.9-10.1-1.7-11.2s-7.1,5.4-6.9,8.8c0.1,2.8,4.6,3.7,5.2,0.7
					c0.8-4.4-0.2-8.4-3-11.9c-1.3-1.5-4-0.6-4.4,1.1c-0.7,2.9,0.5,6,3.4,7.2c2.1,0.9,5.4-1.2,3.6-3.5c-3.1-4-6.6-7.4-10.7-10.4
					c-2.4-1.7-5.5,2.2-3.2,4.1c2.4,2,5,3.4,8,4.4c2.1,0.7,4.4-2,3-3.8c-2.6-3.3-5.9-5.7-10.1-6.7c-3-0.7-4.5,3.1-2,4.8
					c4.1,2.7,7.6,6,10.4,9.9C680,216.1,684.5,213.5,682.6,210.8L682.6,210.8z"/>
			</g>
		</g>
		<path class="st3" d="M552.6,170.3c1.5-5.3,15.4-6.2,31-1.9s27,12.1,25.5,17.4c-1.5,5.3-15.4,6.2-31,1.9S551.1,175.6,552.6,170.3z"
			/>
		
			<ellipse transform="matrix(1.837718e-03 -1 1 1.837718e-03 407.6486 697.093)" class="st19" cx="553" cy="144.3" rx="12.4" ry="12.6"/>
	</g>
</g>
<ellipse class="st0" cx="70.3" cy="296.3" rx="70.3" ry="11.9"/>
<ellipse class="st0" cx="290.3" cy="296.3" rx="70.3" ry="11.9"/>
<ellipse class="st0" cx="515.3" cy="296.3" rx="70.3" ry="11.9"/>
<ellipse class="st0" cx="737.3" cy="296.3" rx="70.3" ry="11.9"/>
</svg>
